<svg width="57" height="57" viewBox="0 0 57 57" fill="none" xmlns="http://www.w3.org/2000/svg">
<circle cx="28.5" cy="28.5" r="28.5" fill="#008000" fill-opacity="0.1"/>
<path d="M38.317 23.3243C38.5925 23.222 38.9907 23.1795 39.0945 23.4534C39.189 23.7036 38.9293 23.9303 38.7231 24.1018C37.7126 24.9439 37.4703 26.4407 37.7315 27.7329C37.8165 28.1547 37.9393 28.6253 37.7079 28.9873C35.2148 32.8938 32.7217 36.7987 30.227 40.7052C30.1074 40.894 29.9642 41.0987 29.747 41.1506C29.5833 41.1884 29.4133 41.1286 29.2559 41.0703C28.9097 40.9428 28.5571 40.8122 28.2644 40.5871C27.97 40.3621 27.7387 40.0268 27.7308 39.6554C27.6804 37.4503 27.8079 35.2405 28.1101 33.0559C28.5697 29.7302 29.5046 26.3321 31.7191 23.8154C31.8561 23.6611 32.0402 23.4959 32.2401 23.5447C32.4604 23.5982 32.5391 23.872 32.5423 24.1002C32.5439 24.3285 32.5155 24.5834 32.6588 24.7597C32.8004 24.9344 33.0538 24.9612 33.2773 24.958C35.0543 24.9376 36.6534 23.9507 38.317 23.3243Z" fill="#008000"/>
<path d="M33.2113 43.3822C32.6808 42.9258 32.2024 42.3781 31.5633 42.0963C31.2675 41.9657 30.8976 41.8477 30.8189 41.5344C30.7544 41.2795 30.9228 41.0308 31.0817 40.823C33.8849 37.14 36.4897 33.3122 39.093 29.4845C39.3023 29.176 39.5195 28.7841 39.3464 28.452C38.6775 27.1708 39.0175 25.4552 40.0925 24.492C41.169 23.5287 42.8704 23.3729 44.1264 24.0827C45.3824 24.7942 46.1269 26.2988 45.9821 27.739C45.8499 29.0658 45.0582 30.2195 44.2901 31.3086C41.3422 35.4953 38.3659 39.6977 34.7616 43.3287C34.5727 43.5207 34.3618 43.7206 34.0942 43.7584C33.7684 43.8056 33.4631 43.5979 33.2113 43.3822Z" fill="#008000"/>
<mask id="mask0_4001_1136" style="mask-type:luminance" maskUnits="userSpaceOnUse" x="27" y="6" width="15" height="15">
<path d="M27.52 6H41.6223V20.9948H27.52V6Z" fill="white"/>
</mask>
<g mask="url(#mask0_4001_1136)">
<path d="M28.2219 11.3781C28.2738 10.1992 28.8908 9.0943 29.7423 8.28058C30.5922 7.46686 31.6609 6.91756 32.758 6.49418C33.2868 6.28956 33.8314 6.11171 34.3948 6.05662C34.9441 6.00311 35.4997 6.06764 36.038 6.18569C37.2531 6.45168 38.4162 6.99941 39.3433 7.83201C40.2703 8.66462 40.9518 9.78683 41.1816 11.0145C41.3406 11.8597 41.2855 12.7474 41.0211 13.5674C40.8527 14.0868 40.5993 14.5842 40.2262 14.9839C39.9555 15.2751 39.6281 15.5065 39.2976 15.7268C38.5689 16.2116 37.8087 16.6476 37.0233 17.0316C36.3497 17.3621 35.654 17.6565 35.0244 18.0641C33.833 18.8369 32.8917 20.0063 31.5791 20.5509C30.8976 20.8342 29.9894 20.872 29.5409 20.2833C29.4102 20.1118 29.3347 19.9056 29.2607 19.7041C28.9837 18.9408 28.7067 18.1774 28.4297 17.4141C28.3824 17.285 28.3226 17.1434 28.1951 17.0961C27.6506 16.8947 27.4932 16.1707 27.6301 15.6025C27.767 15.0359 28.1054 14.5338 28.2424 13.9672C28.4438 13.1251 28.1826 12.2422 28.2219 11.3781ZM34.5129 14.7384C35.015 15.0563 35.6666 15.0925 36.2253 14.8926C36.7825 14.6928 37.2499 14.2757 37.5726 13.7767C37.933 13.2243 38.1266 12.5475 38.0385 11.8927C37.9488 11.238 37.5537 10.6163 36.9635 10.3235C36.3922 10.0402 35.687 10.0906 35.122 10.3881C34.557 10.684 34.1288 11.2081 33.8739 11.7936C33.6567 12.2957 33.5575 12.8591 33.6535 13.3974C33.7495 13.9357 34.0533 14.4457 34.5129 14.7384Z" fill="#008000"/>
</g>
<path d="M23.6512 44.6352C23.3727 44.0009 23.6906 43.2753 24.0085 42.6583C24.1518 42.3782 24.3233 42.0728 24.6224 41.9674C24.8144 41.8997 25.0253 41.928 25.2267 41.9579C25.9838 42.0713 26.7424 42.1846 27.5011 42.2979C27.9166 42.3593 28.3935 42.4049 28.7098 42.1279C29.0892 41.7958 29.6589 41.758 30.139 41.9107C30.6206 42.0618 31.0314 42.3734 31.428 42.6851C32.0655 43.1856 32.7328 43.7679 32.8808 44.5659C33.0397 45.4347 32.503 46.313 31.779 46.8182C31.0566 47.3219 30.1736 47.5281 29.3142 47.7248C28.6642 47.8743 27.9921 47.6319 27.3862 47.3518C26.2718 46.8355 25.2267 46.1698 24.2855 45.3765C24.0353 45.1656 23.785 44.9358 23.6512 44.6352Z" fill="#008000"/>
<mask id="mask1_4001_1136" style="mask-type:luminance" maskUnits="userSpaceOnUse" x="21" y="25" width="7" height="17">
<path d="M21.9545 25.427H27.9229V41.544H21.9545V25.427Z" fill="white"/>
</mask>
<g mask="url(#mask1_4001_1136)">
<path d="M22.7006 26.7365C22.7462 26.5413 22.795 26.3446 22.8989 26.173C23.1979 25.671 23.9109 25.5262 24.4492 25.7528C24.9875 25.9779 25.3605 26.4926 25.5683 27.0419C25.776 27.5896 25.8421 28.1782 25.9397 28.7559C26.2608 30.6682 26.936 32.5443 26.8778 34.4834C27.1044 34.3165 27.4491 34.5038 27.5483 34.7683C27.6474 35.0311 27.5813 35.3254 27.5231 35.6009C27.2807 36.7278 27.1737 37.8846 27.202 39.0367C27.2146 39.4664 27.1501 40.0267 26.7314 40.118C26.4198 40.1841 26.3914 40.6107 26.2561 40.9018C26.009 41.4338 25.3101 41.5535 24.7246 41.5251C24.2084 41.5015 23.667 41.4071 23.2656 41.0797C22.8737 40.7586 22.6722 40.2628 22.529 39.7765C22.1292 38.4198 22.06 36.9891 22.0269 35.5757C21.9561 32.6136 22.0269 29.6215 22.7006 26.7365Z" fill="#008000"/>
</g>
<mask id="mask2_4001_1136" style="mask-type:luminance" maskUnits="userSpaceOnUse" x="27" y="33" width="18" height="18">
<path d="M27.9229 33.8884H44.0399V50.7247H27.9229V33.8884Z" fill="white"/>
</mask>
<g mask="url(#mask2_4001_1136)">
<path d="M43.4496 35.8622C42.3558 37.9225 41.4287 40.0945 40.9801 42.3861C40.5316 44.6778 40.5804 47.1016 41.3925 49.2894C41.4838 49.5349 41.5861 49.7836 41.5877 50.0448C41.5877 50.3061 41.4618 50.5879 41.2194 50.6823C41.1061 50.7264 40.9817 50.7248 40.8621 50.7248C36.8234 50.6854 32.7863 50.6461 28.7492 50.6067C28.6311 50.6052 28.5084 50.6036 28.4045 50.5469C28.1857 50.4273 28.1495 50.1346 28.1385 49.8843C28.1259 49.6262 28.1149 49.3665 28.1039 49.1084C28.0913 48.8125 28.1951 48.3969 28.4879 48.4347C29.8556 48.6126 31.2486 48.164 32.4117 47.4227C33.5748 46.6798 34.5349 45.6583 35.4226 44.6006C37.9645 41.574 40.0169 38.1711 42.222 34.8895C42.488 34.496 42.9035 34.049 43.3505 34.208C43.648 34.3135 43.7975 34.666 43.7739 34.9808C43.7518 35.2956 43.5976 35.5836 43.4496 35.8622Z" fill="#008000"/>
</g>
<path d="M39.7257 17.6865C39.7792 19.1581 40.53 20.4959 41.1706 21.8196C41.2681 22.0242 41.3657 22.2666 41.2618 22.468C41.1422 22.7041 40.8274 22.7419 40.5646 22.7545C38.3343 22.8615 36.1214 23.2928 34.0139 24.0325C33.825 24.0986 33.6157 24.1679 33.4284 24.0955C33.1231 23.9774 33.0633 23.5745 33.0617 23.2456C33.057 22.3343 33.1262 21.4214 33.2694 20.5195C33.3607 19.9356 33.5543 19.2667 34.1005 19.0463C35.6886 18.4057 37.2373 17.6707 38.7388 16.846C38.9041 16.7547 39.0898 16.6587 39.2756 16.698C39.6596 16.7767 39.7115 17.293 39.7257 17.6865Z" fill="#008000"/>
<path d="M25.7571 24.8398C25.6454 25.0224 25.5273 25.2097 25.3479 25.3277C25.1669 25.4458 24.945 25.4757 24.7293 25.4867C24.3327 25.504 23.9329 25.4615 23.5505 25.3576C23.3065 25.2915 23.0311 25.1577 22.9933 24.9059C22.9775 24.8083 23.0043 24.7092 23.0295 24.6132C23.4057 23.2439 23.8983 21.906 24.4995 20.6217C24.5908 20.425 24.6931 20.2219 24.8694 20.0976C25.0457 19.9732 25.3211 19.9606 25.4565 20.1291C25.8814 20.6579 26.308 21.1867 26.7345 21.7171C26.8714 21.8871 27.0147 22.0681 27.0556 22.2853C27.117 22.6096 26.936 22.9259 26.7628 23.2061C26.4276 23.7507 26.0923 24.2952 25.7571 24.8398Z" fill="#008000"/>
<path d="M35.1802 14.1168C34.8843 14.0114 34.6561 13.7548 34.5459 13.4605C34.4357 13.1662 34.4357 12.8388 34.505 12.5319C34.601 12.1085 34.8261 11.7166 35.144 11.4222C35.5312 11.0634 36.1183 10.8572 36.5904 11.0886C37.1051 11.342 37.2845 12.0172 37.1712 12.5807C37.0689 13.089 36.7714 13.5565 36.3559 13.8634C36.0191 14.1121 35.5737 14.2569 35.1802 14.1168Z" fill="#008000"/>
<path d="M28.7098 19.125C28.6075 19.3626 28.3101 19.4397 28.0535 19.4429C27.797 19.4476 27.5231 19.413 27.2965 19.5373C27.5074 19.668 27.7765 19.594 28.022 19.6066C28.5163 19.6318 28.9192 20.0158 29.1946 20.4282C29.3032 20.5903 29.4024 20.7729 29.3929 20.968C29.3819 21.1632 29.2167 21.3599 29.0246 21.3348C28.9333 21.3237 28.8641 21.4245 28.8625 21.5173C28.8625 21.6086 28.9066 21.6936 28.9302 21.7818C28.9947 22.021 28.9019 22.2949 28.7036 22.4428C28.5068 22.5923 28.2188 22.6065 28.0079 22.4774C27.8867 22.4019 27.7938 22.287 27.7041 22.1752C27.1186 21.4418 26.5315 20.7099 25.946 19.9765C25.8107 19.808 25.6753 19.5546 25.8233 19.3973C26.1443 19.0557 26.4875 18.722 26.903 18.508C27.3201 18.2939 27.8222 18.2089 28.2597 18.3789C28.5619 18.4954 28.8405 18.8275 28.7098 19.125Z" fill="#008000"/>
<path d="M20.5527 21.7964V20.7183H21.2453L21.2374 21.9113C21.2374 22.16 21.1445 22.4464 21.3381 22.6479C21.549 22.8651 22.0243 22.9029 22.0779 22.5314C22.1093 22.3457 22.07 22.1285 22.07 21.9349L22.0621 20.9197C22.0621 20.5719 22.0779 20.797 22.3423 20.649C22.7783 20.394 22.5217 20.2083 23.0742 20.2461L23.9162 20.3012C24.3585 20.3232 24.7945 20.2933 24.6386 19.6889C24.5458 19.3411 24.0405 19.4339 23.7683 19.4339H22.8648V18.6737L23.7903 18.6816C24.0626 18.6816 24.4293 18.6973 24.6544 18.5274C24.7866 18.2708 24.8732 17.3957 24.5379 17.2336C24.3443 17.1407 23.1529 17.1864 22.857 17.1864V16.4592H23.8532C24.0862 16.4592 24.3663 16.4907 24.593 16.4041C24.6701 16.1177 24.8259 15.3905 24.6701 15.1182C24.5536 14.9026 24.1177 14.9719 23.9162 14.9719L22.8491 14.964V14.4682C22.8491 14.3911 22.8412 14.3061 22.857 14.2353H23.8139C23.9855 14.2353 24.4687 14.2903 24.593 14.1282C24.7173 13.9645 24.7567 13.0816 24.6937 12.8801C24.6087 12.6094 24.1728 12.6786 23.9618 12.6786H22.8884V11.7957L23.5652 11.8114C23.8532 11.8193 24.2892 11.8964 24.5222 11.6808C25.0211 11.207 24.39 10.9206 23.8847 10.9442C23.5967 10.9599 23.1686 11.0843 22.8963 11.037C22.5374 10.2784 22.2415 10.4956 22.0401 10.2784L22.048 9.11685C22.048 8.90752 22.1015 8.56598 21.9929 8.38812C21.8134 8.25591 21.4782 8.25591 21.2846 8.35665C21.176 8.53607 21.2216 8.93742 21.2216 9.14676V10.302H20.4819L20.4898 9.21758C20.4898 8.57385 20.5685 8.19453 19.728 8.21814C19.0118 8.23388 19.0197 8.48099 19.0197 9.06176C19.0197 9.47256 19.0418 9.90696 19.0118 10.3162C18.7931 10.3241 18.5444 10.3477 18.3335 10.3083V9.17037C18.3414 8.55811 18.2485 8.06232 17.5166 8.40386C17.4316 8.63523 17.4316 8.87604 17.4316 9.12472L17.4238 9.92113C17.4238 10.0297 17.4395 10.1855 17.408 10.2941L16.7234 10.302C16.6211 10.0077 16.832 8.8304 16.6604 8.54237L16.6447 8.51246C16.5125 8.27952 16.3031 8.19453 16.045 8.2024C15.8121 8.22601 15.524 8.25591 15.3682 8.44164C15.1195 8.73596 15.3603 9.99195 15.2517 10.2863L14.5828 10.2941C14.5513 10.2013 14.575 10.0612 14.575 9.96048V9.00038C14.575 8.69032 14.6363 8.48886 14.3168 8.32674C13.6794 8.01668 13.7109 8.58959 13.7109 9.02399C13.7109 9.43321 13.7329 9.86761 13.703 10.2784H13.6873C13.3048 10.3634 12.9003 10.6735 12.7917 11.0607C12.4486 10.9914 12.1149 10.9442 11.7639 10.9442C11.2666 10.952 10.7991 11.3078 11.2587 11.7343L11.2744 11.75C11.5388 11.9814 12.5037 11.7736 12.831 11.8744V12.6251L11.9512 12.633C11.756 12.633 11.5074 12.6015 11.3358 12.6865L11.3043 12.7023C10.8762 12.9116 10.9628 14.0889 11.3201 14.1817L11.4444 14.2054C11.9119 14.2825 12.4265 14.1581 12.8767 14.2667C12.8767 14.4839 12.9003 14.7389 12.8688 14.9561C12.628 14.964 11.2351 14.9246 11.1564 15.0191C10.9628 15.2426 10.9392 16.1806 11.1406 16.327C11.383 16.5049 12.5273 16.4356 12.8846 16.475V17.1722C12.3164 17.2179 11.7324 17.125 11.1721 17.2179C11.0006 17.52 10.9549 17.9922 11.0557 18.3259C11.1721 18.7367 11.5467 18.6659 11.8883 18.6659H12.831V19.1853C12.831 19.2624 12.8389 19.3552 12.8232 19.4339L11.9119 19.4182C11.7639 19.4182 11.6002 19.4025 11.4601 19.4261C11.18 19.4717 11.0084 19.9439 11.2036 20.1375C11.468 20.4019 12.5666 20.2854 12.9475 20.169C13.1962 20.4318 13.585 20.6411 13.725 20.8048L13.7187 22.0199C13.7187 22.1836 13.6479 22.5629 13.788 22.6857C14.0367 22.9186 14.5356 22.7408 14.5828 22.4071C14.6127 22.2135 14.597 21.99 14.597 21.7964V20.6962C14.8 20.6726 15.033 20.6648 15.236 20.6884V21.8814C15.236 22.1285 15.1652 22.4386 15.3682 22.6322C15.6562 22.9107 16.3566 22.9186 16.6289 22.6085C16.8084 22.3992 16.7454 22.0199 16.7454 21.7649L16.7533 20.712H17.4615L17.4552 21.8106C17.4474 22.1364 17.3608 22.8258 17.929 22.7864C18.4437 22.7565 18.3728 22.1678 18.365 21.8184V20.7261L19.0575 20.712L19.0276 22.1836C18.9961 22.6085 19.3691 22.8415 19.7658 22.8651C20.5291 22.8415 20.5527 22.4622 20.5527 21.7964ZM14.7072 19.9439C14.0288 19.9518 13.6164 20.169 13.585 19.4182L13.5787 12.2065C13.5787 11.8744 13.5393 11.4793 13.6086 11.1614C13.8273 11.0984 14.0445 11.0906 14.2712 11.0906H20.8958C21.176 11.0906 21.8292 11.0134 22.0621 11.185C22.1723 11.7658 22.1251 12.3686 22.1329 12.9651V18.1166C22.1329 18.7052 22.188 19.3332 22.0621 19.914L21.4483 19.9439H14.7072Z" fill="#008000"/>
<path d="M19.7201 13.338C19.7201 13.0516 19.7122 12.7872 19.292 12.7793C18.7694 12.9115 18.8938 13.3223 18.8938 13.7174V17.2571C18.8938 17.5436 18.8938 18.0394 19.3612 18.0236C19.8051 17.8993 19.728 17.3878 19.7201 17.0714V13.338Z" fill="#008000"/>
<path d="M16.9642 12.8187C16.8084 12.7715 16.6289 12.7715 16.4653 12.7872C15.3131 12.9808 15.4076 13.8418 15.4076 14.731V17.1864C15.4076 17.3658 15.384 17.5736 15.4312 17.753C15.6326 18.0316 16.1552 18.0158 16.193 17.6129L16.2008 16.8543H16.9642L17.0413 16.8621C17.1814 17.1942 16.9012 17.7451 17.3529 17.9387C17.641 18.063 17.8755 17.8144 17.8755 17.5279L17.8598 14.2982C17.8598 13.5616 17.8204 13.058 16.9642 12.8187ZM17.057 14.5154L17.0413 15.9792H16.2008C16.1851 15.7856 16.1395 13.8874 16.2323 13.7709C16.3173 13.6702 16.4967 13.6403 16.6211 13.6167C17.1893 13.6623 17.057 14.1046 17.057 14.5154Z" fill="#008000"/>
</svg>
