<svg width="57" height="57" viewBox="0 0 57 57" fill="none" xmlns="http://www.w3.org/2000/svg">
<circle cx="28.5" cy="28.5" r="28.5" fill="#A52A2A" fill-opacity="0.15"/>
<mask id="mask0_4001_397" style="mask-type:luminance" maskUnits="userSpaceOnUse" x="20" y="44" width="18" height="5">
<path d="M20.4004 44.0291H37.6435V48.3007H20.4004V44.0291Z" fill="white"/>
</mask>
<g mask="url(#mask0_4001_397)">
<path d="M36.9386 47.4297H34.8976L34.3572 44.4253H23.5614L23.021 47.4297H20.9815C20.7528 47.4297 20.568 47.6145 20.568 47.8416C20.568 48.0688 20.7528 48.2536 20.9815 48.2536H36.9386C37.1673 48.2536 37.3506 48.0688 37.3506 47.8416C37.3506 47.6145 37.1673 47.4297 36.9386 47.4297Z" fill="#A52A2A"/>
</g>
<path d="M42.6075 22.4502H15.3111C14.6219 22.4502 14.0611 23.011 14.0611 23.7002V42.3515C14.0611 43.0423 14.6219 43.6031 15.3111 43.6031H42.6075C43.2967 43.6031 43.8575 43.0423 43.8575 42.3515V23.7002C43.8575 23.011 43.2967 22.4502 42.6075 22.4502ZM28.5473 37.3546C28.1964 37.4095 27.8565 37.5567 27.5511 37.7964C27.0639 38.177 26.3167 38.1034 25.9063 37.6444C25.6745 37.3844 25.568 37.0461 25.6087 36.6936C25.6729 36.1438 26.1178 35.7005 26.6645 35.6394C26.9934 35.6018 27.3036 35.6911 27.5511 35.8822C27.8565 36.1234 28.1949 36.2723 28.5473 36.3286V37.3546ZM28.5473 35.489C28.3797 35.4405 28.2137 35.3559 28.0586 35.2337C27.6357 34.9063 27.1078 34.7575 26.5721 34.8202C25.6479 34.9251 24.8976 35.6723 24.7895 36.5996C24.7221 37.1792 24.9054 37.7603 25.2907 38.1927C25.98 38.9665 27.2394 39.0855 28.057 38.4464C28.1761 38.354 28.3437 38.2491 28.5473 38.1927V40.2416H22.3756C22.0263 40.2416 21.7428 39.9565 21.7428 39.6072V33.437H24.2459C24.4731 33.437 24.6579 33.2538 24.6579 33.0251V32.9092C24.6579 32.5066 24.5248 32.115 24.2851 31.7594C24.2522 31.7108 24.2256 31.6607 24.1895 31.6137C24.1551 31.5699 24.1394 31.5197 24.1128 31.4728C24.0063 31.2895 23.9358 31.089 23.9358 30.8728C23.9358 30.5282 24.083 30.1977 24.3399 29.969C24.3634 29.9486 24.39 29.9345 24.4135 29.9157C24.6642 29.7246 24.9681 29.6338 25.2907 29.6729C25.839 29.7356 26.2823 30.1805 26.3465 30.7271C26.3825 31.0483 26.2948 31.3647 26.0974 31.6169C26.0285 31.7061 25.969 31.7986 25.9142 31.8926C25.9095 31.9019 25.9016 31.9113 25.8954 31.9192C25.8844 31.9411 25.8766 31.9646 25.8656 31.985C25.7137 32.2795 25.6291 32.5927 25.6291 32.9123V33.0251C25.6291 33.2538 25.8139 33.437 26.041 33.437H28.5473V35.489ZM28.9608 29.6949C28.9045 29.6949 28.8496 29.7074 28.7995 29.7278C28.6523 29.7904 28.5473 29.9377 28.5473 30.1084V32.6131H26.4953C26.5141 32.5426 26.5439 32.4831 26.5721 32.422C26.6269 32.3061 26.688 32.2011 26.7475 32.1228C27.078 31.703 27.2253 31.1736 27.1657 30.6347C27.0592 29.709 26.312 28.9602 25.3879 28.8537C25.3534 28.849 25.3174 28.8553 25.2829 28.8521C24.7362 28.8192 24.2005 28.99 23.7932 29.3518V29.3534C23.3593 29.7387 23.1103 30.2932 23.1103 30.8744C23.1103 31.2519 23.2168 31.609 23.4095 31.9239C23.4502 31.9912 23.4894 32.0586 23.5395 32.1228C23.5755 32.1698 23.6147 32.2293 23.6507 32.2904C23.7071 32.3844 23.7588 32.4909 23.7932 32.6131H21.7444V26.443C21.7444 26.0937 22.0295 25.8102 22.3772 25.8102H28.5473V28.3117C28.5473 28.5404 28.7322 28.7253 28.9593 28.7253H29.0768C29.5295 28.7253 29.9759 28.5624 30.3691 28.2569C30.8593 27.8778 31.6065 27.9467 32.0169 28.4073C32.2488 28.6673 32.3537 29.0041 32.313 29.355C32.2488 29.9048 31.8039 30.3496 31.2588 30.4123C30.9314 30.4452 30.6165 30.359 30.3675 30.1648C30.3377 30.1413 30.3064 30.1256 30.2766 30.1037C30.1059 29.9831 29.9273 29.8828 29.7425 29.8155C29.5232 29.7356 29.2992 29.6949 29.0736 29.6949H28.9608ZM36.1773 39.6072C36.1773 39.958 35.8938 40.2431 35.5445 40.2431H29.3744V37.74C29.3744 37.7337 29.3712 37.729 29.3712 37.7228V35.959C29.3712 35.9527 29.3744 35.948 29.3744 35.9433V33.437H31.4248C31.3966 33.5389 31.3575 33.6313 31.312 33.7143C31.3089 33.719 31.3058 33.7206 31.3042 33.7253C31.2603 33.802 31.2149 33.8709 31.1711 33.9258C30.8421 34.3487 30.6949 34.8766 30.7544 35.4154C30.781 35.6473 30.8484 35.8681 30.9486 36.0702C31.2478 36.6764 31.8415 37.1197 32.5354 37.1996H32.537C32.6153 37.209 32.692 37.2121 32.7704 37.2121C32.808 37.2121 32.844 37.2043 32.8816 37.2027C32.9348 37.1996 32.9881 37.1949 33.0429 37.187C33.1259 37.1761 33.2074 37.1588 33.2889 37.1369C33.3374 37.1244 33.386 37.1134 33.433 37.0978C33.5207 37.068 33.6037 37.0288 33.6867 36.9865C33.7243 36.9677 33.7619 36.9536 33.7979 36.9333C33.9154 36.8644 34.0266 36.7876 34.1285 36.6967C34.5608 36.3114 34.8098 35.7585 34.8098 35.1789C34.8098 34.9204 34.7535 34.6667 34.6595 34.427C34.589 34.25 34.4997 34.0793 34.3806 33.9258C34.3243 33.8537 34.2757 33.7785 34.235 33.7018C34.1927 33.6219 34.1535 33.5342 34.1269 33.437H36.1773V39.6072ZM36.1773 32.6131H33.6742C33.4455 32.6131 33.2622 32.7964 33.2622 33.0251V33.1426C33.2622 33.5984 33.4251 34.0464 33.7306 34.4333C33.8966 34.6494 33.9843 34.9063 33.9843 35.1789C33.9843 35.4092 33.9139 35.6316 33.7917 35.8243C33.7321 35.9182 33.6648 36.0075 33.5802 36.0827C33.5144 36.1407 33.4439 36.1908 33.3703 36.2331C33.2231 36.3177 33.0602 36.3678 32.8894 36.3835C32.8048 36.3913 32.7187 36.3897 32.631 36.3803C32.5636 36.3725 32.5041 36.3427 32.4399 36.3239C31.9856 36.1892 31.63 35.8039 31.5736 35.323C31.5376 35.0003 31.6253 34.6839 31.8211 34.4333C31.8885 34.3471 31.9464 34.2578 31.9997 34.167C32.006 34.1545 32.0169 34.1435 32.0232 34.1325C32.0451 34.0934 32.0577 34.0526 32.078 34.0135C32.2127 33.7347 32.2895 33.4402 32.2895 33.1394V33.0251C32.2895 32.7964 32.1046 32.6131 31.8775 32.6131H29.3728V30.5627C29.5749 30.6191 29.7425 30.7224 29.86 30.8149C30.2798 31.1438 30.8139 31.2895 31.3512 31.2331C31.5815 31.2049 31.8023 31.1391 32.0028 31.0389C32.609 30.7397 33.0508 30.1444 33.1322 29.4521C33.1996 28.8725 33.0163 28.2914 32.6325 27.859C32.1172 27.2795 31.2854 27.068 30.5492 27.2669C30.4333 27.2983 30.3189 27.3421 30.2093 27.3938C30.2046 27.3969 30.1983 27.3985 30.1936 27.4001C30.0777 27.4565 29.9681 27.5238 29.8631 27.6037C29.8036 27.6507 29.7331 27.7008 29.6501 27.7447C29.6391 27.7509 29.625 27.7541 29.6156 27.7603C29.5404 27.7979 29.4621 27.834 29.3728 27.859V25.8102H35.5445C35.8938 25.8102 36.1773 26.0937 36.1773 26.4446V32.6131Z" fill="#A52A2A"/>
<mask id="mask1_4001_397" style="mask-type:luminance" maskUnits="userSpaceOnUse" x="9" y="8" width="40" height="23">
<path d="M9 8H49V30.7961H9V8Z" fill="white"/>
</mask>
<g mask="url(#mask1_4001_397)">
<path d="M47.0483 19.9894C45.8453 18.7785 44.2459 18.1034 42.5323 18.094C42.4837 18.094 42.4258 18.094 42.3756 18.1034C42.3929 17.9217 42.4007 17.74 42.4007 17.5677C42.4085 14.4521 39.9618 11.855 36.8869 11.6498C35.7168 9.41608 33.3688 7.97341 30.8296 7.96558H30.7967C28.0022 7.96558 25.5226 9.63851 24.4668 12.1855C23.7087 11.8315 22.8691 11.642 22.0107 11.6326H21.9872C19.0032 11.6326 16.5063 13.8584 16.1272 16.7751H16.0693C14.199 16.7751 12.4352 17.5004 11.099 18.8193C9.7566 20.146 9.01412 21.9192 9.00629 23.8052C8.98122 26.6827 10.6792 29.2124 13.234 30.3324V23.6987C13.234 22.5536 14.1661 21.6294 15.3111 21.6294H42.6059C43.7525 21.6294 44.683 22.5536 44.683 23.6987V30.5392C47.172 29.6495 48.8872 27.292 48.9107 24.5477C48.9201 22.8246 48.2607 21.2096 47.0483 19.9894Z" fill="#A52A2A"/>
</g>
</svg>
