<svg width="57" height="57" viewBox="0 0 57 57" fill="none" xmlns="http://www.w3.org/2000/svg">
<circle cx="28.5" cy="28.5" r="28.5" fill="#393536" fill-opacity="0.1"/>
<mask id="mask0_4001_6" style="mask-type:luminance" maskUnits="userSpaceOnUse" x="11" y="10" width="35" height="35">
<path d="M11 10H46V44.1733H11V10Z" fill="white"/>
</mask>
<g mask="url(#mask0_4001_6)">
<path d="M45.2263 40.0412C44.2741 37.1927 43.4812 33.8953 41.8936 31.0484C40.3061 28.2014 36.9701 27.6384 36.9701 27.6384C40.4653 25.422 40.1758 22.8163 37.9529 20.4712C35.7316 18.126 35.5724 15.2565 34.1441 12.9114C32.7174 10.5647 30.0924 10.1738 28.4019 10.1738C26.7114 10.1738 24.0864 10.5647 22.6565 12.9098C21.2282 15.2565 21.0705 18.1244 18.8477 20.4696C16.6248 22.8147 16.3369 25.422 19.8304 27.6368C19.8304 27.6368 16.4961 28.2014 14.9069 31.0468C13.321 33.8921 12.5264 37.1911 11.5742 40.0396C10.6204 42.8866 11.3571 44.0592 14.0561 44.0592C14.7027 44.0592 15.8704 44.0592 17.2601 44.0592C17.4917 43.5734 17.8745 43.1761 18.3716 42.9606L16.7888 32.266C16.6955 31.6258 16.8773 30.9872 17.2907 30.5128C17.7024 30.0383 18.312 29.7664 18.9619 29.7664H37.8419C38.4901 29.7664 39.0997 30.0383 39.5131 30.5144C39.9249 30.9872 40.1066 31.6258 40.0133 32.266L38.4306 42.9606C38.9276 43.1745 39.3088 43.5734 39.5404 44.0592C40.935 44.0592 42.0979 44.0592 42.7477 44.0592C45.4451 44.0592 46.1802 42.8866 45.2263 40.0412ZM33.7613 20.3956C33.6326 21.626 33.3334 23.6286 32.6546 25.0746C31.6108 27.2991 29.3702 28.2883 28.4019 28.2883C27.432 28.2883 25.193 27.2991 24.1475 25.0746C23.4688 23.6286 23.1696 21.626 23.0409 20.3956C22.1016 21.0261 21.1912 21.8593 21.1912 21.8593C21.7139 20.6642 22.9541 19.2873 22.9541 19.2873C24.5947 16.6173 28.4035 15.4303 28.4035 15.4303C28.4035 15.4303 32.2091 16.6173 33.8513 19.2873C33.8513 19.2873 35.0898 20.6658 35.6126 21.8593C35.611 21.8593 34.7006 21.0261 33.7613 20.3956Z" fill="#100F0D"/>
</g>
<path d="M30.8001 39.4299C30.9658 39.1002 31.0945 38.5034 31.1846 37.8359H28.4019V41.1606C29.597 40.7907 30.4029 40.2084 30.8001 39.4299Z" fill="#100F0D"/>
<path d="M28.4019 37.8343V33.9097C27.8342 33.9097 27.1393 34.0335 26.475 34.2507C26.3319 34.7364 26.0262 35.3155 25.444 35.79C25.4681 36.4044 25.5228 37.1571 25.6161 37.8359H28.4019V37.8343Z" fill="#100F0D"/>
<mask id="mask1_4001_6" style="mask-type:luminance" maskUnits="userSpaceOnUse" x="18" y="30" width="21" height="17">
<path d="M18 30.9968H39V46.4412H18V30.9968Z" fill="white"/>
</mask>
<g mask="url(#mask1_4001_6)">
<path d="M37.546 44.0591H36.9653L38.7394 32.0794C38.8199 31.5116 38.4178 31.0483 37.8419 31.0483H29.4506C28.8748 31.0483 27.9274 31.0483 27.3516 31.0483H18.9619C18.386 31.0483 17.9823 31.5116 18.066 32.0794L19.8369 44.0591H19.2594C18.7399 44.0591 18.3169 44.4773 18.3169 44.9937V45.333C18.3169 45.851 18.7399 46.2692 19.2594 46.2692H37.546C38.0655 46.2692 38.4853 45.8493 38.4853 45.333V44.9937C38.4853 44.4773 38.0655 44.0591 37.546 44.0591ZM25.7029 33.6074C26.6069 33.2487 27.6073 33.0428 28.4019 33.0428C29.1949 33.0428 30.1969 33.2487 31.0993 33.6074C31.0993 33.6074 31.0993 34.6818 32.2429 35.3494C32.2429 35.3494 32.1946 38.6033 31.5754 39.8209C30.9577 41.0385 29.7015 41.7044 28.4019 42.063C27.1023 41.7044 25.8445 41.0385 25.2268 39.8209C24.6075 38.6033 24.5593 35.3494 24.5593 35.3494C25.7029 34.6835 25.7029 33.6074 25.7029 33.6074ZM34.2422 44.4484H22.5632C22.3798 44.4484 22.2335 44.3004 22.2335 44.1187C22.2335 43.9385 22.3798 43.7905 22.5632 43.7905H34.2422C34.424 43.7905 34.5719 43.9385 34.5719 44.1187C34.5719 44.3004 34.424 44.4484 34.2422 44.4484Z" fill="#100F0D"/>
</g>
</svg>
