<svg width="57" height="57" viewBox="0 0 57 57" fill="none" xmlns="http://www.w3.org/2000/svg">
<circle cx="28.5" cy="28.5" r="28.5" fill="#FFA500" fill-opacity="0.06"/>
<path d="M13.5781 37.7021H22.8344V38.5865H13.5781V37.7021Z" fill="#FFA500"/>
<path d="M13.5781 35.6741H22.8344V36.5584H13.5781V35.6741Z" fill="#FFA500"/>
<path d="M13.5781 39.7302H22.8344V40.6146H13.5781V39.7302Z" fill="#FFA500"/>
<path d="M13.4344 17.6282H14.3167V18.7334H13.4344V17.6282Z" fill="#FFA500"/>
<path d="M13.4344 19.8386H14.3167V20.9438H13.4344V19.8386Z" fill="#FFA500"/>
<path d="M14.3448 16.5219V15.4448H13.4344V16.5229H14.3167L14.3448 16.5219Z" fill="#FFA500"/>
<path d="M15.4479 15.4448H16.5511V16.3292H15.4479V15.4448Z" fill="#FFA500"/>
<path d="M17.6542 15.4448H18.7573V16.3292H17.6542V15.4448Z" fill="#FFA500"/>
<path d="M19.8604 15.4448H20.9635V16.3292H19.8604V15.4448Z" fill="#FFA500"/>
<path d="M22.0667 15.4448H23.1698V16.3292H22.0667V15.4448Z" fill="#FFA500"/>
<path d="M22.4302 27.0073H23.3125V28.1125H22.4302V27.0073Z" fill="#FFA500"/>
<path d="M13.5771 31.6208H14.6802V32.5052H13.5771V31.6208Z" fill="#FFA500"/>
<path d="M15.7833 31.6208H16.8865V32.5052H15.7833V31.6208Z" fill="#FFA500"/>
<path d="M22.4302 29.2178H23.3125V30.323H22.4302V29.2178Z" fill="#FFA500"/>
<path d="M23.3125 31.4282H22.4021V32.5053H23.3125V31.4282Z" fill="#FFA500"/>
<path d="M20.1959 31.6208H21.299V32.5052H20.1959V31.6208Z" fill="#FFA500"/>
<path d="M17.9896 31.6208H19.0927V32.5052H17.9896V31.6208Z" fill="#FFA500"/>
<mask id="mask0_4009_2206" style="mask-type:luminance" maskUnits="userSpaceOnUse" x="24" y="23" width="22" height="21">
<path d="M24.7406 23.9126H46V43.8001H24.7406V23.9126Z" fill="white"/>
</mask>
<g mask="url(#mask0_4009_2206)">
<path d="M29.4166 36.6876V37.1303C29.4166 38.1303 28.6156 38.9459 27.6229 38.9678C26.6333 38.9469 25.8291 38.124 25.8291 37.1303V24.0771H24.9458V37.1303C24.9458 38.5949 26.126 39.8084 27.5823 39.8511V39.8532C27.5937 39.8532 27.6062 39.8521 27.6177 39.8521C27.6333 39.8521 27.6479 39.8532 27.6635 39.8532H36.3771V42.9209H29.6979V43.8053H37.2593V39.8532H43.2698C44.7677 39.8532 45.9864 38.6313 45.9864 37.1303V36.6876H29.4166ZM43.2698 38.9688H29.5833C29.9333 38.5865 30.176 38.1053 30.2635 37.5719H45.05C44.852 38.373 44.1291 38.9688 43.2698 38.9688Z" fill="#FFA500"/>
</g>
<mask id="mask1_4009_2206" style="mask-type:luminance" maskUnits="userSpaceOnUse" x="11" y="10" width="33" height="34">
<path d="M11 10H43.4073V43.8H11V10Z" fill="white"/>
</mask>
<g mask="url(#mask1_4009_2206)">
<path d="M11.8885 14.0136H36.3771V16.4678H24.9458V20.5053H25.8281V17.3521H42.3948V34.6219H43.2771V16.4678H37.2594V10.0032H11.0062V43.8053H28.2073V42.9209H11.8885V14.0136ZM34.5364 10.8875H36.3771V13.1292H34.5364V10.8875ZM31.8719 10.8875H33.6541V13.1292H31.8719V10.8875ZM11.8885 10.8875H30.9896V13.1292H11.8885V10.8875Z" fill="#FFA500"/>
</g>
<path d="M33.7969 33.2364C37.0802 33.2364 39.75 30.5614 39.75 27.2718V26.8291H34.2385V21.3062H33.7969C30.5135 21.3062 27.8427 23.9822 27.8427 27.2718C27.8427 30.5614 30.5146 33.2364 33.7969 33.2364ZM38.849 27.7134C38.7021 29.4072 37.7229 30.8666 36.324 31.6749L34.4885 27.7134H38.849ZM35.524 32.0478C34.9844 32.2447 34.4031 32.353 33.7969 32.353C32.6469 32.353 31.5865 31.9666 30.7344 31.3187L33.6771 28.0624L35.524 32.0478ZM33.3552 22.2093V27.1009L30.0813 30.7239C29.2406 29.8166 28.726 28.6041 28.726 27.2718C28.726 24.6187 30.7656 22.4343 33.3552 22.2093Z" fill="#FFA500"/>
<path d="M41.2823 25.7657C41.2823 22.4761 38.6115 19.8 35.3292 19.8H34.8875V26.2084H41.2823V25.7657ZM35.7708 25.324V20.7032C38.2156 20.9157 40.1698 22.874 40.3813 25.324H35.7708Z" fill="#FFA500"/>
<path d="M28.0907 21.1397C28.8875 21.1397 29.5354 20.4897 29.5354 19.6917C29.5354 18.8938 28.8875 18.2449 28.0907 18.2449C27.2938 18.2449 26.6459 18.8938 26.6459 19.6917C26.6459 19.8959 26.6886 20.0907 26.7657 20.2667L23.6896 23.2449C23.4511 23.073 23.1604 22.9709 22.8459 22.9709C22.4698 22.9709 22.1271 23.1167 21.8698 23.3542L19.6 22.3251C19.6323 22.2053 19.6511 22.0792 19.6511 21.949C19.6511 21.1511 19.0031 20.5011 18.2063 20.5011C17.4094 20.5011 16.7615 21.1511 16.7615 21.949C16.7615 22.172 16.8136 22.3813 16.9031 22.5699L14.4188 24.9761C14.2511 24.9074 14.0677 24.8688 13.8761 24.8688C13.0792 24.8688 12.4313 25.5178 12.4313 26.3157C12.4313 27.1147 13.0792 27.7636 13.8761 27.7636C14.6729 27.7636 15.3209 27.1147 15.3209 26.3157C15.3209 26.0334 15.2386 25.7709 15.0979 25.548L17.5073 23.2147C17.7146 23.3303 17.9531 23.397 18.2063 23.397C18.549 23.397 18.8646 23.2751 19.1125 23.0751L21.4313 24.1261C21.4115 24.2199 21.4011 24.3178 21.4011 24.4178C21.4011 25.2157 22.049 25.8657 22.8459 25.8657C23.6427 25.8657 24.2907 25.2157 24.2907 24.4178C24.2907 24.2595 24.2636 24.1074 24.2167 23.9636L27.349 20.9313C27.5657 21.0626 27.8188 21.1397 28.0907 21.1397ZM28.0907 19.1282C28.4011 19.1282 28.6532 19.3813 28.6532 19.6917C28.6532 20.0022 28.4011 20.2553 28.0907 20.2553C27.7802 20.2553 27.5282 20.0022 27.5282 19.6917C27.5282 19.3813 27.7802 19.1282 28.0907 19.1282ZM13.8761 26.8792C13.5656 26.8792 13.3136 26.6272 13.3136 26.3157C13.3136 26.0053 13.5656 25.7532 13.8761 25.7532C14.1854 25.7532 14.4375 26.0053 14.4375 26.3157C14.4375 26.6272 14.1854 26.8792 13.8761 26.8792ZM18.2063 22.5126C17.8959 22.5126 17.6438 22.2595 17.6438 21.949C17.6438 21.6386 17.8959 21.3855 18.2063 21.3855C18.5167 21.3855 18.7688 21.6386 18.7688 21.949C18.7688 22.2595 18.5167 22.5126 18.2063 22.5126ZM22.8459 24.9813C22.5354 24.9813 22.2834 24.7282 22.2834 24.4178C22.2834 24.1074 22.5354 23.8542 22.8459 23.8542C23.1563 23.8542 23.4084 24.1074 23.4084 24.4178C23.4084 24.7282 23.1563 24.9813 22.8459 24.9813Z" fill="#FFA500"/>
</svg>
