<svg width="100" height="100" viewBox="0 0 100 100" fill="none" xmlns="http://www.w3.org/2000/svg">
<mask id="mask0_18_7767" style="mask-type:luminance" maskUnits="userSpaceOnUse" x="0" y="0" width="100" height="100">
<path d="M0 0H100V100H0V0Z" fill="white"/>
</mask>
<g mask="url(#mask0_18_7767)">
<path d="M99.2066 0.0389404H23.8366C23.3985 0.0389404 23.0432 0.394275 23.0432 0.832359V34.2095C20.2687 41.0047 20.2687 48.7734 23.0432 55.5929V67.0171C22.3471 67.022 21.6706 67.3092 21.1741 67.8544L1.53815 89.4811C0.52569 90.5958 0.00972445 92.0415 0.0876061 93.5407C0.165488 95.0497 0.832349 96.4321 1.96163 97.4397C2.99356 98.3694 4.34189 98.8805 5.74863 98.8805C7.3598 98.8805 8.89797 98.2039 9.96884 97.0259L23.0432 82.6178V99.1676C23.0432 99.6057 23.3985 99.9611 23.8366 99.9611H99.2066C99.6447 99.9611 100 99.6057 100 99.1676V0.832359C100 0.394275 99.6447 0.0389404 99.2066 0.0389404ZM24.5814 34.6379C25.7496 31.8098 27.4046 29.2056 29.5025 26.8984C34.779 21.0816 42.2362 18.0393 49.742 18.0393C54.8871 18.0393 60.0613 19.4704 64.5736 22.4202C65.698 23.1454 66.7932 23.9827 67.8251 24.9026C69.373 26.2899 70.7506 27.8329 71.9188 29.5025C73.2379 31.3766 74.3088 33.4015 75.1022 35.5286C75.1168 35.5578 75.1265 35.5919 75.146 35.6211C75.8469 37.5341 76.3288 39.5249 76.582 41.5401C77.5652 49.3088 75.1022 57.0921 69.8257 62.8943C64.7342 68.5018 57.4474 71.7436 49.8296 71.7923C48.3353 71.8117 46.8166 71.6852 45.332 71.4418C40.9463 70.7555 36.7504 68.9642 33.1873 66.2627C32.6616 65.8684 32.1067 65.4157 31.5031 64.8803C30.9725 64.4081 30.4468 63.897 29.9406 63.3713C27.6382 60.957 25.8323 58.1873 24.5716 55.1451C24.5716 55.1402 24.5668 55.1402 24.5668 55.1402C21.8653 48.6127 21.8701 41.141 24.5814 34.6379ZM46.0037 73.1406C47.0113 73.2671 48.0286 73.345 49.0411 73.3645V91.0095H46.0037V73.1406ZM26.0271 68.7743L29.3906 65.0652C29.741 65.4108 30.0915 65.7467 30.4468 66.0631C30.8362 66.4087 31.1964 66.7105 31.5518 66.9977L28.1883 70.7019L26.0271 68.7743ZM28.2954 63.9165L24.8442 67.7132L24.7907 67.6694C24.742 67.6256 24.6836 67.6012 24.6301 67.5623V58.859C25.6571 60.6649 26.8789 62.3588 28.2954 63.9165ZM8.79574 95.9599C8.0218 96.8069 6.91198 97.2936 5.74863 97.2936C4.7313 97.2936 3.76264 96.9286 3.0179 96.2617C2.20501 95.5364 1.72799 94.5386 1.66958 93.4628C1.61603 92.3822 1.98597 91.3503 2.71124 90.5471L22.3471 68.9204C22.537 68.7111 22.795 68.604 23.0627 68.604C23.2087 68.604 23.3596 68.6332 23.4959 68.7013C23.5981 68.75 23.676 68.7987 23.7344 68.8522L24.3575 69.4071C24.3623 69.412 24.3623 69.4169 24.3672 69.4217C24.3721 69.4266 24.3769 69.4266 24.3818 69.4315L28.3538 72.9799C28.5436 73.1503 28.6604 73.384 28.6702 73.6419C28.6848 73.8951 28.5971 74.1433 28.4219 74.338L23.2477 80.0282L8.79574 95.9599ZM98.4132 98.3742H24.6301V80.8703L29.595 75.404C30.0574 74.8978 30.2959 74.2407 30.257 73.5592C30.2229 72.8777 29.9211 72.2498 29.4149 71.7971L29.3711 71.7582L32.8271 67.9517C36.2782 70.4342 40.2551 72.1281 44.4168 72.8826V91.0047H41.287V77.3365C41.287 76.8984 40.9316 76.543 40.4936 76.543H35.8693C35.4313 76.543 35.0759 76.8984 35.0759 77.3365V91.0047H31.1283C30.6902 91.0047 30.3349 91.36 30.3349 91.7981C30.3349 92.2362 30.6902 92.5915 31.1283 92.5915H90.1431C90.5812 92.5915 90.9365 92.2362 90.9365 91.7981C90.9365 91.36 90.5812 91.0047 90.1431 91.0047H88.0014V64.559C88.0014 64.1209 87.646 63.7656 87.2079 63.7656H82.5935C82.1554 63.7656 81.8 64.1209 81.8 64.559V91.0047H78.6604V71.5829C78.6604 71.1497 78.3051 70.7944 77.867 70.7944H73.2428C72.8047 70.7944 72.4494 71.1497 72.4494 71.5829V91.0047H69.3195V77.3365C69.3195 76.8984 68.9642 76.543 68.5261 76.543H63.9019C63.4638 76.543 63.1084 76.8984 63.1084 77.3365V91.0047H59.9688V86.2977C59.9688 85.8596 59.6135 85.5043 59.1754 85.5043H54.5609C54.1228 85.5043 53.7675 85.8596 53.7675 86.2977V91.0047H50.6279V73.3499C58.3966 73.0919 65.7856 69.6992 70.9988 63.9603C74.9708 59.5892 77.4289 54.1569 78.1493 48.4278H87.2323C87.6704 48.4278 88.0257 48.0724 88.0257 47.6343C88.0257 47.1963 87.6704 46.8409 87.2323 46.8409H78.3051C78.4073 45.3174 78.3878 43.7792 78.2418 42.2362H87.2323C87.6704 42.2362 88.0257 41.8808 88.0257 41.4428C88.0257 41.0047 87.6704 40.6493 87.2323 40.6493H78.0471C77.8135 39.0868 77.4484 37.5487 76.9568 36.0397H87.2323C87.6704 36.0397 88.0257 35.6893 88.0257 35.2512C88.0257 34.8131 87.6704 34.4578 87.2323 34.4578H76.3775C75.7447 32.8563 74.961 31.3084 74.0411 29.8384H87.2323C87.6704 29.8384 88.0257 29.4831 88.0257 29.0498C88.0257 28.6118 87.6704 28.2564 87.2323 28.2564H72.9653C71.7825 26.616 70.4147 25.0925 68.8814 23.7247C68.419 23.3109 67.942 22.9215 67.4601 22.5467H87.2323C87.6704 22.5467 88.0257 22.1914 88.0257 21.7533C88.0257 21.3152 87.6704 20.9599 87.2323 20.9599H65.2307C53.5095 13.4492 37.6898 15.5228 28.3294 25.8324C26.8984 27.4095 25.662 29.118 24.6301 30.9336V1.62578H98.4132V98.3742ZM39.7001 91.0047H36.6628V78.1299H39.7001V91.0047ZM67.7327 91.0047H64.6953V78.1299H67.7327V91.0047ZM86.4145 91.0047H83.3869V65.3524H86.4145V91.0047Z" fill="white"/>
</g>
<path d="M35.3581 53.5729C35.3581 53.5777 35.3581 53.5777 35.3581 53.5777C35.3581 53.5777 35.3581 53.5826 35.363 53.5826C35.3824 53.6118 35.4068 53.6361 35.4311 53.6653C35.4506 53.6897 35.4652 53.7189 35.4895 53.7384C35.5236 53.7676 35.5577 53.7919 35.5917 53.8162C35.6112 53.8308 35.6307 53.8454 35.655 53.8601C35.694 53.8795 35.7378 53.8941 35.7816 53.9087C35.8011 53.9136 35.8205 53.9282 35.84 53.9331C35.9033 53.9477 35.9714 53.9574 36.0347 53.9574C36.1077 53.9574 36.1759 53.9477 36.2489 53.9282C36.2683 53.9185 36.2829 53.9087 36.3024 53.9039C36.3511 53.8844 36.3998 53.8698 36.4484 53.8406L48.8657 46.3007V60.738C48.8657 61.1761 49.221 61.5314 49.6591 61.5314C55.7874 61.5314 61.4241 58.2214 64.3787 52.8865C64.3787 52.8865 64.3787 52.8865 64.3787 52.8817C64.3885 52.8671 64.4128 52.8281 64.4177 52.8135C64.6173 52.4241 64.4518 51.9812 64.0672 51.7767C64.0234 51.7524 63.9747 51.7524 63.9261 51.7378L50.4525 44.4218V29.0499C50.4525 28.6118 50.0972 28.2565 49.6591 28.2565C46.3053 28.2565 43.0684 29.2349 40.3036 31.0845C36.6188 33.5524 34.0292 37.4368 33.2066 41.73C32.9973 42.7376 32.8951 43.8036 32.8951 44.8939C32.8951 47.9703 33.7469 50.9736 35.3581 53.5729ZM48.8657 42.3092L41.8661 31.9851C43.9884 30.7195 46.3784 29.9942 48.8657 29.8676V42.3092ZM34.6426 42.8203L47.4882 45.2833L36.317 52.0639C35.1147 49.8784 34.4819 47.4153 34.4819 44.8939C34.4819 44.1833 34.5452 43.4969 34.6426 42.8203Z" fill="white"/>
<path d="M46.8603 50.2141C46.6023 50.0681 46.2859 50.0779 46.0376 50.2385L34.5939 57.7249C34.3992 57.8563 34.2678 58.0607 34.2386 58.2944C34.2142 58.528 34.2873 58.7617 34.4479 58.932C37.5047 62.1933 41.4475 64.3448 45.8429 65.1577C45.8916 65.1674 45.9403 65.1674 45.989 65.1674C46.1691 65.1674 46.3443 65.109 46.4855 64.997C46.6656 64.851 46.7726 64.6368 46.7824 64.4032L47.2643 50.9297C47.274 50.6376 47.1182 50.3602 46.8603 50.2141ZM45.2296 63.4102C41.8369 62.6168 38.7703 60.9472 36.2732 58.5231L45.6239 52.4046L45.2296 63.4102Z" fill="white"/>
<path d="M52.8913 43.4238L68.4433 51.3386C68.5552 51.397 68.6769 51.4262 68.8035 51.4262C68.9106 51.4262 69.0128 51.4067 69.115 51.3629C69.3292 51.2704 69.4947 51.0854 69.5628 50.8615C70.1469 48.9194 70.4439 46.909 70.4439 44.8939C70.4439 34.9201 63.2739 26.3921 53.3926 24.6106C53.159 24.5716 52.9205 24.63 52.7404 24.7858C52.5603 24.9318 52.4581 25.1557 52.4581 25.3942V42.718C52.4581 43.0198 52.6236 43.2924 52.8913 43.4238ZM54.0449 26.3629C62.6849 28.3586 68.857 36.0056 68.857 44.8939C68.857 46.4417 68.6672 47.9799 68.2972 49.484L54.0449 42.2313V26.3629Z" fill="white"/>
<path d="M49.6592 69.5338C63.3566 69.5338 74.4986 58.4794 74.4986 44.894C74.4986 31.3134 63.3566 20.259 49.6592 20.259C35.9666 20.259 24.8296 31.3134 24.8296 44.894C24.8296 58.4794 35.9666 69.5338 49.6592 69.5338ZM49.6592 21.8459C62.4805 21.8459 72.9117 32.1847 72.9117 44.894C72.9117 57.6033 62.4805 67.9469 49.6592 67.9469C36.8428 67.9469 26.4164 57.6033 26.4164 44.894C26.4164 32.1847 36.8428 21.8459 49.6592 21.8459Z" fill="white"/>
<path d="M39.8314 12.9235H87.2321C87.6702 12.9235 88.0256 12.5682 88.0256 12.135C88.0256 11.6969 87.6702 11.3416 87.2321 11.3416H39.8314C39.3982 11.3416 39.0429 11.6969 39.0429 12.135C39.0429 12.5682 39.3933 12.9235 39.8314 12.9235Z" fill="white"/>
</svg>
