<svg width="88" height="98" viewBox="0 0 88 98" fill="none" xmlns="http://www.w3.org/2000/svg">
<path fill-rule="evenodd" clip-rule="evenodd" d="M79.7808 18.8423L84.4817 13.4186C85.0141 12.7996 85.9491 12.7347 86.5638 13.2757C87.1784 13.8125 87.2434 14.7518 86.7066 15.3708C85.2825 17.0157 73.6775 30.4777 73.4048 30.7028C72.7728 31.2222 71.8421 31.1313 71.327 30.495L68.0329 26.4564C67.5178 25.8201 66.5872 25.7249 65.9552 26.2443C65.3232 26.7637 65.2323 27.703 65.7474 28.335C67.5958 30.6032 69.4224 32.8801 71.2708 35.1483C71.8465 35.8538 72.9329 35.8668 73.526 35.1829L80.8284 26.7464C80.8846 26.6815 80.9669 26.6598 81.0448 26.6901C81.1227 26.7204 81.1746 26.7897 81.1746 26.8763V36.4815C81.1746 37.7108 80.1747 38.715 78.9497 38.715H63.6048C62.3841 38.715 61.3842 37.7108 61.3842 36.4815V21.0499C61.3842 19.8163 62.3841 18.812 63.6048 18.812H78.9497C79.1705 18.812 79.3783 18.8423 79.5774 18.9029C79.6553 18.9246 79.7289 18.9029 79.7808 18.8423ZM34.4428 38.0571C34.4428 41.3772 37.1179 44.0696 40.4207 44.0696C43.7234 44.0696 46.4028 41.3772 46.4028 38.0571C46.4028 34.7327 43.7234 32.0403 40.4207 32.0403C37.1179 32.0403 34.4428 34.7327 34.4428 38.0571ZM16.5094 61.7563C15.345 60.1287 14.1676 58.4709 12.9945 56.7957C12.9556 56.7394 12.8906 56.7091 12.8214 56.7135L2.753 57.4147C1.13843 57.5272 0.463163 60.0638 1.60159 61.4836C1.89161 61.8472 2.27253 62.0723 2.67509 62.0723H16.3492C16.4228 62.0723 16.4877 62.029 16.5223 61.9641C16.557 61.8948 16.5526 61.8212 16.5094 61.7563ZM67.8122 56.7178L64.319 61.7606C64.2757 61.8212 64.2714 61.8992 64.306 61.9641C64.3406 62.0333 64.4056 62.0723 64.4791 62.0723H79.2657C80.6768 62.0723 81.5253 59.5227 80.3609 58.0727C80.0535 57.6874 79.638 57.445 79.1878 57.4147L67.9897 56.6355C67.9161 56.6312 67.8555 56.6615 67.8122 56.7178ZM51.5193 65.6824C51.5193 65.7776 51.4587 65.8555 51.3634 65.8728L50.6102 66.0373C50.554 66.0503 50.4977 66.0373 50.4501 65.9984C49.3463 65.1543 48.1602 64.4617 46.879 63.9206C46.8227 63.899 46.7837 63.8557 46.7664 63.7994L45.3813 59.5141C45.1605 58.8388 44.5458 58.3886 43.8446 58.3886H36.9967C36.2955 58.3886 35.6765 58.8431 35.4601 59.5141L34.0749 63.7994C34.0576 63.8557 34.0186 63.899 33.9667 63.9206C32.6854 64.4617 31.4951 65.1543 30.3913 65.9984C30.3436 66.0373 30.2874 66.0503 30.2311 66.0373L29.4779 65.8728C29.387 65.8555 29.3221 65.7776 29.3221 65.6824V60.3279H29.3178C29.3178 59.5054 28.452 58.9081 27.6815 59.237L21.3531 61.9295C21.0544 62.0593 20.7471 62.1026 20.4441 62.0766V62.0723C19.929 62.0723 19.3489 61.6957 19.0329 61.2369L8.58799 46.1733C7.94735 45.234 8.18542 43.8315 9.15071 43.1822V43.1779C10.0597 42.5632 11.3193 42.8316 11.8864 43.6497L11.8907 43.654L12.0466 43.8618C12.0509 43.8661 12.0552 43.8704 12.0552 43.8748L21.7773 54.6963C21.7816 54.6963 21.7816 54.7007 21.786 54.705C22.1842 55.2028 22.9114 55.2937 23.4222 54.9041L32.6032 47.8225C32.6075 47.8181 32.6118 47.8138 32.6205 47.8095C33.5468 47.2381 34.7069 46.8139 35.9752 46.5499C37.3647 46.2555 38.871 46.1473 40.3557 46.2295C40.399 46.2295 40.4423 46.2295 40.4856 46.2295C41.9703 46.1473 43.481 46.2555 44.8662 46.5499C46.1388 46.8139 47.2988 47.2381 48.2252 47.8095C48.2295 47.8138 48.2338 47.8181 48.2382 47.8225L57.4235 54.9041C57.904 55.272 58.5965 55.2158 59.0121 54.7569L68.7731 43.8878C68.7775 43.8834 68.7818 43.8834 68.7818 43.8791L68.916 43.706C69.245 43.2471 69.6908 42.9658 70.2102 42.8705C72.0759 42.5242 73.2489 44.7405 72.2577 46.1733C72.2577 46.1733 72.2577 46.1733 72.2533 46.1776C68.7125 51.0776 65.267 56.233 61.8214 61.2239C61.2933 61.9944 60.3496 62.2974 59.4926 61.9295L53.2637 59.2803C53.2594 59.2803 53.2594 59.2803 53.255 59.276C52.3503 58.8431 51.5236 59.5141 51.5236 60.3279V65.6824H51.5193ZM57.4884 71.9329L56.4019 70.0456L56.4063 70.0413L55.3198 68.154C55.1034 67.7774 54.6878 67.5913 54.2636 67.6822L50.4717 68.4916V68.4873C50.1341 68.5609 49.7662 68.483 49.4805 68.2449C48.4243 67.3705 46.8357 66.3879 45.5371 65.9291C45.3856 65.8728 45.2644 65.7949 45.1519 65.678C44.4506 64.9422 43.8706 62.7822 43.5156 61.4923C43.3944 61.0551 43.0135 60.7651 42.5677 60.7651H38.2823C37.8322 60.7651 37.4469 61.0594 37.33 61.5009C36.9448 62.9423 36.2609 65.5742 35.4125 65.8901C34.1225 66.3749 32.4603 67.2926 31.4301 68.1886C31.4215 68.1973 31.4171 68.2016 31.4085 68.206C31.1401 68.457 30.7549 68.5739 30.3696 68.4916L26.5777 67.6822C26.1535 67.5913 25.738 67.7774 25.5216 68.154L23.3529 71.9286C23.1365 72.3052 23.1841 72.764 23.4741 73.0886L26.067 75.9802C26.2964 76.2399 26.4132 76.5948 26.3526 76.9671C26.1276 78.3652 26.0843 80.2179 26.344 81.6117C26.344 81.6204 26.344 81.6247 26.344 81.6333C26.4176 81.9883 26.3267 82.3735 26.067 82.6636L23.4784 85.5594C23.1884 85.884 23.1408 86.3386 23.3572 86.7151L24.4394 88.6024L25.5216 90.494C25.738 90.8706 26.1535 91.0567 26.5777 90.9659L30.3696 90.1564C30.7072 90.0871 31.0752 90.1651 31.3609 90.4031C32.4257 91.2818 34.0316 92.2731 35.3345 92.7276C35.3432 92.7319 35.3519 92.7319 35.3562 92.7363C35.7068 92.8488 36.0011 93.1215 36.1223 93.4981L37.317 97.1991C37.4512 97.6146 37.8192 97.8873 38.2564 97.8873H42.5893C43.0222 97.8873 43.3901 97.6146 43.5243 97.1991L44.719 93.5024H44.7233C44.8315 93.1691 45.0826 92.8878 45.4332 92.7579C46.7188 92.2731 48.3853 91.3554 49.4155 90.4551C49.4242 90.4507 49.4285 90.4464 49.4329 90.4378C49.7056 90.191 50.0865 90.0742 50.4761 90.1564L54.2636 90.9659C54.6878 91.0567 55.1034 90.8706 55.3198 90.4897L57.4884 86.7151C57.7049 86.3386 57.6572 85.884 57.3672 85.5594L54.7744 82.6636H54.7787C54.545 82.4082 54.4281 82.0489 54.4887 81.681C54.7181 80.2785 54.7571 78.4258 54.5017 77.032C54.5017 77.0277 54.4973 77.0234 54.4973 77.0147C54.4238 76.6598 54.5147 76.2745 54.7744 75.9802L57.3672 73.0886C57.6572 72.764 57.7049 72.3095 57.4884 71.9329ZM40.4207 72.5519C44.1433 72.5519 47.156 75.5819 47.156 79.3262C47.156 83.0661 44.1433 86.1005 40.4207 86.1005C36.6981 86.1005 33.6853 83.0661 33.6853 79.3262C33.6853 75.5819 36.6981 72.5519 40.4207 72.5519ZM18.1932 18.9029C17.9941 18.8423 17.7863 18.812 17.5655 18.812H2.22058C0.999911 18.812 0 19.8206 0 21.0499V36.4815C0 37.7108 0.999911 38.7194 2.22058 38.7194H17.5655C18.7905 38.7194 19.7905 37.7108 19.7905 36.4815V26.8763C19.7905 26.794 19.7385 26.7204 19.6606 26.6901C19.5827 26.6642 19.5004 26.6815 19.4442 26.7464C17.8296 28.6207 12.1981 35.1656 11.9643 35.356C11.3323 35.8755 10.4017 35.7846 9.88657 35.1483C8.03825 32.8801 6.21157 30.6032 4.36325 28.335C3.84814 27.703 3.93905 26.7637 4.57102 26.2443C5.203 25.7292 6.13366 25.8201 6.64876 26.4564L9.94284 30.495C10.5185 31.2049 11.605 31.2135 12.1981 30.5296L25.6384 15.0029C26.1752 14.3839 26.1102 13.4446 25.4956 12.9078C24.8809 12.3711 23.9459 12.436 23.4092 13.0507L18.3966 18.8423C18.3447 18.9029 18.2711 18.9246 18.1932 18.9029ZM48.7186 5.96037C48.5195 5.89977 48.3117 5.86947 48.0953 5.86947H32.7504C31.5254 5.86947 30.5254 6.87804 30.5254 8.10737V23.5389C30.5254 24.7682 31.5254 25.7768 32.7504 25.7768H48.0953C49.316 25.7768 50.3159 24.7682 50.3159 23.5389V13.9337C50.3159 13.8514 50.2683 13.7779 50.1904 13.7476C50.1081 13.7173 50.0259 13.7389 49.9696 13.8038C48.355 15.6781 42.7235 22.223 42.4897 22.4135C41.8578 22.9329 40.9271 22.842 40.412 22.2057C38.5637 19.9375 36.737 17.6606 34.8887 15.3924C34.3736 14.7605 34.4688 13.8211 35.0965 13.3017C35.7284 12.7823 36.6591 12.8775 37.1742 13.5138L40.4683 17.5524C41.044 18.2623 42.1305 18.271 42.7235 17.587L55.8176 2.45851C56.3543 1.84385 56.2894 0.90454 55.6747 0.363461C55.0601 -0.173287 54.1251 -0.108359 53.5927 0.510634L48.9264 5.89977C48.8745 5.96037 48.7966 5.98201 48.7186 5.96037Z" fill="white"/>
</svg>
