<svg width="57" height="57" viewBox="0 0 57 57" fill="none" xmlns="http://www.w3.org/2000/svg">
<circle cx="28.5" cy="28.5" r="28.5" fill="#F1E9FF"/>
<mask id="mask0_4001_482" style="mask-type:luminance" maskUnits="userSpaceOnUse" x="18" y="33" width="15" height="10">
<path d="M18.466 33.1494H32.033V42.9478H18.466V33.1494Z" fill="white"/>
</mask>
<g mask="url(#mask0_4001_482)">
<path d="M26.6269 35.3276C27.0367 35.3276 27.3694 34.9954 27.3694 34.5866V33.9526C27.3694 33.5439 27.0367 33.2122 26.6269 33.2122C26.2172 33.2122 25.8845 33.5439 25.8845 33.9526V34.5866C25.8845 34.9954 26.2172 35.3276 26.6269 35.3276ZM26.3094 33.9526C26.3094 33.7784 26.4522 33.6361 26.6269 33.6361C26.8016 33.6361 26.9444 33.7784 26.9444 33.9526V34.5866C26.9444 34.7608 26.8016 34.9036 26.6269 34.9036C26.4522 34.9036 26.3094 34.7608 26.3094 34.5866V33.9526ZM28.2168 34.4816H28.6393C28.9892 34.4816 29.2747 34.1965 29.2747 33.8476C29.2747 33.4973 28.9892 33.2141 28.6393 33.2141H27.7918V35.3276H28.2168V34.4816ZM28.2168 33.6361H28.6393C28.7561 33.6361 28.8518 33.7313 28.8518 33.8476C28.8518 33.9639 28.7561 34.0596 28.6393 34.0596H28.2168V33.6361ZM30.3342 35.3276H29.6992V34.9056H30.3342C30.451 34.9056 30.5466 34.8099 30.5466 34.6936C30.5466 34.5773 30.451 34.4816 30.3342 34.4816C29.9828 34.4816 29.6992 34.1965 29.6992 33.8476C29.6992 33.4973 29.9848 33.2141 30.3342 33.2141H30.9696V33.6376H30.3342C30.2179 33.6376 30.1222 33.7333 30.1222 33.8496C30.1222 33.9659 30.2179 34.0616 30.3342 34.0616C30.6855 34.0616 30.9696 34.3467 30.9696 34.6956C30.9696 35.0425 30.6855 35.3276 30.3342 35.3276ZM23.6243 35.016L23.0757 33.2873L23.4796 33.1597L23.8702 34.3953L24.2612 33.1597L24.6651 33.2873L24.1165 35.018C24.1013 35.0685 24.0919 35.1063 24.0866 35.1303C24.0468 35.3031 23.9325 35.3276 23.8687 35.3276C23.8044 35.3276 23.692 35.3011 23.6523 35.1303C23.6503 35.1063 23.641 35.0665 23.6243 35.016ZM22.7072 35.3276H21.4348V33.2141H22.7072V33.6376H21.8597V34.0596H22.7072V34.4816H21.8597V34.9056H22.7072V35.3276ZM21.0123 34.4816V34.0596C21.0123 33.593 20.6325 33.2141 20.1649 33.2141H19.5299V35.3276H20.1649C20.6325 35.3276 21.0123 34.9468 21.0123 34.4816ZM19.9524 33.6361H20.1649C20.3979 33.6361 20.5874 33.8256 20.5874 34.0577V34.4797C20.5874 34.7123 20.3979 34.9036 20.1649 34.9036H19.9524V33.6361ZM32.0291 39.556C32.0291 38.6879 31.6797 37.8758 31.0408 37.2457L31.0467 37.2403L30.8754 37.0922L30.7272 36.9626L30.7233 36.9665C30.0658 36.4528 29.2443 36.1731 28.3876 36.1731C27.7128 36.1731 26.9841 36.4675 26.2172 37.0509L26.2152 37.049L26.067 37.1687L25.883 37.3169L25.8864 37.3208C25.6725 37.5043 25.46 37.705 25.2495 37.9244C25.039 37.705 24.8265 37.5043 24.6126 37.3208L24.6165 37.3169L24.432 37.1687L24.2838 37.049L24.2819 37.0509C23.5168 36.4675 22.7862 36.1731 22.1115 36.1731C21.2547 36.1731 20.4333 36.4542 19.7757 36.9665L19.7723 36.9626L19.6236 37.0922L19.4528 37.2403L19.4582 37.2457C18.8194 37.8758 18.47 38.6879 18.47 39.556C18.47 40.424 18.8194 41.2361 19.4582 41.8662L19.4528 41.8721L19.6236 42.0203L19.7723 42.1493L19.7757 42.1459C20.4318 42.6577 21.2547 42.9389 22.1115 42.9389C22.7862 42.9389 23.5168 42.6445 24.2819 42.0615L24.2838 42.063L24.432 41.9432L24.6165 41.795L24.6126 41.7911C24.8265 41.6076 25.039 41.4069 25.2495 41.1876C25.46 41.4069 25.6725 41.6096 25.8864 41.7911L25.883 41.795L26.067 41.9432L26.2152 42.063L26.2172 42.0615C26.9841 42.6445 27.7128 42.9389 28.3876 42.9389C29.2443 42.9389 30.0658 42.6577 30.7233 42.1459L30.7272 42.1493L30.8754 42.0203L31.0467 41.8721L31.0408 41.8662C31.6797 41.2342 32.0291 40.4226 32.0291 39.556ZM28.3876 42.5149C27.8203 42.5149 27.1927 42.2602 26.5199 41.7592L26.9616 41.3186L27.4292 40.85C27.8051 41.1125 28.1265 41.2455 28.3876 41.2455C28.7899 41.2455 29.1825 41.1351 29.5113 40.9344L30.4225 41.8436C29.8459 42.2789 29.132 42.5149 28.3876 42.5149ZM25.0935 40.7376C24.8363 41.0168 24.5748 41.27 24.3137 41.4933L23.4079 40.5894C23.6542 40.3848 23.9119 40.1409 24.1597 39.873C24.169 39.8636 24.1783 39.8543 24.1862 39.845C24.1935 39.8357 24.2028 39.8259 24.2102 39.8165C24.2819 39.738 24.353 39.6517 24.4433 39.5393C24.4791 39.4941 24.5243 39.4362 24.5768 39.3725C24.8157 39.0721 25.1911 38.607 25.4036 38.3763C25.4056 38.3749 25.4056 38.3749 25.4075 38.3729C25.6632 38.0932 25.9262 37.84 26.1872 37.6187L26.6436 38.0745L27.0931 38.5226C26.8468 38.7272 26.5911 38.9711 26.3413 39.239C26.332 39.2483 26.3227 39.2576 26.3148 39.2674C26.3075 39.2768 26.2981 39.2861 26.2908 39.2934C26.2191 39.3725 26.146 39.4583 26.0577 39.5712C26.0067 39.635 25.939 39.7194 25.8619 39.8165C25.8565 39.8224 25.8526 39.8298 25.8472 39.8357C25.8359 39.8484 25.8266 39.8617 25.8153 39.8749C25.8001 39.8936 25.7849 39.9122 25.7682 39.9328C25.5444 40.2125 25.2701 40.5442 25.0994 40.7317C25.0994 40.7317 25.0954 40.7356 25.0935 40.7376ZM20.0785 41.8436L20.9897 40.9344C21.3185 41.137 21.7096 41.2455 22.1134 41.2455C22.3711 41.2455 22.692 41.1125 23.0698 40.848L23.9811 41.7578C23.3083 42.2602 22.6807 42.5134 22.1134 42.5134C21.3676 42.5149 20.6531 42.2789 20.0785 41.8436ZM22.1115 36.5951C22.6792 36.5951 23.3068 36.8502 23.9791 37.3508L23.5114 37.8194L23.0698 38.26C22.6939 37.9975 22.3725 37.8645 22.1115 37.8645C21.7096 37.8645 21.3165 37.9754 20.9878 38.1756L20.0765 37.2664C20.6531 36.8331 21.3676 36.5951 22.1115 36.5951ZM22.1115 40.8235C21.7356 40.8235 21.373 40.7057 21.0913 40.4937C20.7719 40.2518 20.5874 39.9103 20.5874 39.556C20.5874 39.2017 20.7719 38.8602 21.0913 38.6182C21.373 38.4048 21.7356 38.2865 22.1115 38.2865C22.2243 38.2865 22.4834 38.341 22.9628 38.7066L22.9663 38.7085C23.2538 38.9279 23.5733 39.2243 23.876 39.556L23.8741 39.5579C23.5698 39.8882 23.2538 40.1806 22.9628 40.4034L22.9516 40.4113C22.4761 40.7695 22.2224 40.8235 22.1115 40.8235ZM24.3344 38.9971C24.2632 39.0854 24.1989 39.1659 24.1503 39.2277C23.906 38.9637 23.6503 38.7218 23.4099 38.5211L24.3137 37.6187C24.5316 37.8047 24.7495 38.0108 24.9639 38.234C24.7721 38.4534 24.5282 38.7551 24.3344 38.9971ZM19.8999 37.6864L20.6531 38.4382C20.3415 38.7458 20.1649 39.1418 20.1649 39.556C20.1649 39.9687 20.3395 40.3661 20.6531 40.6738L19.7571 41.5683C19.1992 41.0188 18.8944 40.3097 18.8944 39.5579C18.8944 38.8042 19.1992 38.0971 19.7571 37.5475L19.8999 37.6864ZM30.4205 37.2664L29.5093 38.1756C29.1805 37.9735 28.7899 37.8645 28.3856 37.8645C28.1285 37.8645 27.8071 37.9975 27.4292 38.262L26.518 37.3527C27.1907 36.8502 27.8183 36.597 28.3856 36.597C29.132 36.5951 29.8459 36.8331 30.4205 37.2664ZM28.3876 40.8235C28.2747 40.8235 28.0136 40.7695 27.5362 40.4054L27.5328 40.4034C27.2452 40.1841 26.9258 39.8882 26.623 39.556L26.625 39.554C26.9297 39.2223 27.2452 38.9318 27.5362 38.7085L27.544 38.7026C28.021 38.343 28.2767 38.2885 28.3856 38.2885C28.7615 38.2885 29.1241 38.4067 29.4063 38.6202C29.7257 38.8621 29.9097 39.2036 29.9097 39.5579C29.9097 39.9122 29.7257 40.2538 29.4063 40.4957C29.1261 40.7077 28.7634 40.8235 28.3876 40.8235ZM26.0764 40.2238C26.0803 40.2199 26.0837 40.214 26.0876 40.2106C26.1122 40.1806 26.1367 40.1487 26.1608 40.1203C26.2344 40.0305 26.3001 39.948 26.3507 39.8823C26.595 40.1448 26.8507 40.3887 27.0911 40.5894L26.1872 41.4913C25.9694 41.3058 25.7515 41.1012 25.5371 40.876C25.6985 40.6905 25.8997 40.4432 26.0764 40.2238ZM30.6894 41.5139L29.8459 40.6718C30.1575 40.3642 30.3342 39.9687 30.3342 39.554C30.3342 39.1418 30.1595 38.7439 29.8459 38.4367L30.742 37.5421C31.3004 38.0917 31.6046 38.7983 31.6046 39.552C31.6046 40.3063 31.3004 41.0129 30.742 41.5625L30.6894 41.5139Z" fill="#7930F4"/>
</g>
<path d="M25.07 30.6516C24.9213 30.6516 24.7829 30.5853 24.6887 30.472L22.033 27.2024C21.9623 27.1156 21.9241 27.0081 21.9241 26.8962V24.4687C21.9241 24.2862 22.0256 24.1213 22.1876 24.0359C22.348 23.952 22.5438 23.9638 22.694 24.0683C23.3962 24.5556 24.2176 24.8132 25.07 24.8132C25.9223 24.8132 26.7438 24.5556 27.4459 24.0683C27.5961 23.9638 27.7904 23.952 27.9524 24.0359C28.1143 24.1198 28.2159 24.2862 28.2159 24.4687V26.8962C28.2159 27.0081 28.1776 27.117 28.1069 27.2024L25.4512 30.472C25.3585 30.5853 25.2172 30.6516 25.07 30.6516ZM22.903 26.7225L25.07 29.3885L27.2369 26.7225V25.3108C26.5612 25.6243 25.8252 25.7877 25.07 25.7877C24.3148 25.7877 23.5787 25.6243 22.903 25.3108V26.7225Z" fill="#7930F4"/>
<path d="M25.0699 25.7878C22.2258 25.7878 19.9131 23.4824 19.9131 20.6501V20.3233C19.9131 20.0539 20.1324 19.8345 20.4033 19.8345C20.6727 19.8345 20.8921 20.0539 20.8921 20.3233V20.6501C20.8921 22.9451 22.766 24.8132 25.0699 24.8132C27.3737 24.8132 29.2492 22.9466 29.2492 20.6501V19.861C29.2492 19.5917 29.4686 19.3738 29.7379 19.3738C30.0088 19.3738 30.2282 19.5917 30.2282 19.861V20.6501C30.2267 23.4824 27.914 25.7878 25.0699 25.7878Z" fill="#7930F4"/>
<path d="M20.4019 20.8105C20.2429 20.8105 20.0987 20.7339 20.0089 20.6132C19.7439 20.3747 18.996 19.674 18.9018 16.9948C18.8812 16.9727 18.8606 16.9462 18.8415 16.9211C18.6162 16.6061 18.3807 15.9334 18.9578 13.7355C18.9607 13.7208 18.9651 13.7075 18.9695 13.6958C18.9902 13.6413 19.4391 12.4268 21.0496 11.9793C21.5605 10.9356 22.9148 9.3869 25.0891 9.74168C25.2687 9.77112 25.4174 9.89625 25.4748 10.0685C25.4792 10.0817 25.4866 10.1023 25.4954 10.1333C26.4037 9.94189 28.1172 9.74757 29.0505 10.7206C29.1315 10.8045 29.1786 10.915 29.186 11.0298C29.1904 11.1019 29.186 11.3433 28.9917 11.5818C29.2463 11.7379 29.5216 11.9366 29.7925 12.1898C30.6463 12.9906 31.6414 14.5143 31.5325 17.2288C31.531 17.2759 31.5222 17.323 31.5075 17.3672C31.4869 17.4276 30.9922 18.8422 30.1473 20.1274C30.0251 20.3158 29.7881 20.3953 29.5761 20.3217C29.3641 20.2466 29.2287 20.0376 29.2507 19.8138C29.3773 18.4875 29.3288 16.1189 28.6531 15.4137C28.5515 15.3062 28.444 15.2503 28.3145 15.2371C26.4125 16.1866 23.7318 16.1866 21.8284 15.2385C21.7165 15.2518 21.6223 15.3033 21.5295 15.399C20.8156 16.1409 20.7582 18.7789 20.8906 20.2717C20.8906 20.2805 20.8921 20.2893 20.8921 20.2982C20.9039 20.5631 20.7022 20.7898 20.4358 20.8075C20.4255 20.8105 20.4137 20.8105 20.4019 20.8105ZM28.2541 14.2596C28.6781 14.2596 29.0594 14.4245 29.3612 14.741C29.9971 15.4034 30.212 16.6959 30.268 17.8265C30.4152 17.4909 30.5138 17.2318 30.5565 17.1155C30.6978 12.7786 27.7433 12.0617 27.6182 12.0338C27.3753 11.9793 27.2104 11.7511 27.2384 11.5053C27.2649 11.2594 27.471 11.0725 27.7198 11.0695C27.7374 11.0695 27.7551 11.0695 27.7713 11.0695C26.9219 10.8134 25.6735 11.0681 25.2069 11.2108C25.0435 11.2624 24.8653 11.2226 24.7373 11.1093C24.6121 10.9989 24.5518 10.8325 24.5783 10.6691C23.8216 10.6353 23.1547 10.912 22.588 11.492C22.0889 12.0043 21.8549 12.5711 21.8534 12.577C21.793 12.7286 21.6606 12.839 21.5001 12.8729C20.3224 13.1231 19.9514 13.8871 19.897 14.0123C19.4715 15.6448 19.5746 16.1836 19.6217 16.3176C19.7689 16.4 19.869 16.5561 19.8719 16.7342C19.8778 16.9815 19.8881 17.245 19.9102 17.51C20.0089 16.4236 20.2562 15.3107 20.8215 14.7248C21.135 14.4009 21.5295 14.2419 21.9638 14.2611C22.0359 14.2655 22.1066 14.2846 22.1699 14.317C23.8216 15.19 26.3154 15.19 27.9671 14.317C28.0304 14.2831 28.101 14.2655 28.1732 14.2611C28.2011 14.2596 28.2276 14.2596 28.2541 14.2596Z" fill="#7930F4"/>
<path d="M34.8728 32.3563H15.2673C15.123 32.3563 14.9876 32.2945 14.8933 32.1841C14.8021 32.0751 14.7609 31.9309 14.7829 31.7896C15.0273 30.3042 15.7987 28.941 16.9558 27.9503C18.1261 26.9478 19.6159 26.3958 21.1513 26.3958H22.4143C22.5984 26.3958 22.7588 26.4973 22.8427 26.6475L25.07 29.3885L27.2973 26.6475C27.3812 26.4973 27.5417 26.3958 27.7257 26.3958H28.9873C30.5227 26.3958 32.014 26.9478 33.1843 27.9503C34.3399 28.941 35.1127 30.3042 35.3556 31.7896C35.3792 31.9309 35.3394 32.0751 35.2467 32.1841C35.1525 32.2945 35.0171 32.3563 34.8728 32.3563ZM15.8752 31.3818H34.2648C33.6171 29.0603 31.4442 27.3718 28.9873 27.3718H27.9686L25.4498 30.472C25.3571 30.5854 25.2172 30.6516 25.0685 30.6516C24.9213 30.6516 24.7815 30.5854 24.6887 30.472L22.1685 27.3718H21.1498C18.6958 27.3718 16.523 29.0588 15.8752 31.3818Z" fill="#7930F4"/>
<path d="M36.2668 44.7071H13.8731C13.6288 44.7071 13.4227 44.5275 13.3888 44.2876L11.6237 31.938C11.6046 31.7982 11.6458 31.6554 11.7386 31.5494C11.8313 31.4434 11.9667 31.3816 12.1095 31.3816H38.0319C38.1732 31.3816 38.3086 31.4434 38.4014 31.5494C38.4941 31.6554 38.5368 31.7982 38.5162 31.938L36.7511 44.2876C36.7173 44.5275 36.5097 44.7071 36.2668 44.7071ZM14.2986 43.7311H35.8414L37.4666 32.3576H12.6734L14.2986 43.7311Z" fill="#7930F4"/>
<mask id="mask1_4001_482" style="mask-type:luminance" maskUnits="userSpaceOnUse" x="11" y="43" width="29" height="5">
<path d="M11.3999 43.5767H39.1094V47.2525H11.3999V43.5767Z" fill="white"/>
</mask>
<g mask="url(#mask1_4001_482)">
<path d="M35.7013 47.2451H14.4382C12.7629 47.2451 11.4012 45.8878 11.4012 44.2185C11.4012 43.9491 11.6206 43.7312 11.89 43.7312H38.251C38.5204 43.7312 38.7398 43.9491 38.7398 44.2185C38.7398 45.8878 37.3766 47.2451 35.7013 47.2451ZM12.4391 44.7072C12.6584 45.6022 13.4725 46.2706 14.4382 46.2706H35.7013C36.6685 46.2706 37.4811 45.6022 37.7019 44.7072H12.4391Z" fill="#7930F4"/>
</g>
<path d="M38.9576 22.6279C38.3665 22.6279 37.8863 22.1477 37.8863 21.5566C37.8863 20.966 38.3665 20.4853 38.9576 20.4853C39.5487 20.4853 40.0289 20.966 40.0289 21.5566C40.0289 22.1477 39.5487 22.6279 38.9576 22.6279ZM38.9576 20.0569C38.1305 20.0569 37.4579 20.73 37.4579 21.5566C37.4579 22.3837 38.1305 23.0568 38.9576 23.0568C39.7846 23.0568 40.4573 22.3837 40.4573 21.5566C40.4573 20.73 39.7846 20.0569 38.9576 20.0569Z" fill="#7930F4"/>
<path d="M38.9577 21.7709C38.8399 21.7709 38.7432 21.6747 38.7432 21.5564C38.7432 21.4387 38.8399 21.3425 38.9577 21.3425C39.0759 21.3425 39.1721 21.4387 39.1721 21.5564C39.1721 21.6747 39.0759 21.7709 38.9577 21.7709ZM38.9577 20.9136C38.603 20.9136 38.3148 21.2018 38.3148 21.5564C38.3148 21.9115 38.603 22.1993 38.9577 22.1993C39.3128 22.1993 39.6005 21.9115 39.6005 21.5564C39.6005 21.2018 39.3128 20.9136 38.9577 20.9136Z" fill="#7930F4"/>
<mask id="mask2_4001_482" style="mask-type:luminance" maskUnits="userSpaceOnUse" x="36" y="18" width="6" height="11">
<path d="M36.1274 18.7061H41.7578V28.6271H36.1274V18.7061Z" fill="white"/>
</mask>
<g mask="url(#mask2_4001_482)">
<path d="M41.3145 21.663C41.3145 21.7633 41.2508 21.8513 41.1564 21.8825C40.9686 21.9434 40.8215 22.0818 40.7518 22.2605C40.7427 22.2843 40.7335 22.3077 40.7234 22.3301C40.6474 22.5061 40.6542 22.7068 40.7417 22.8809C40.7871 22.9702 40.7706 23.0775 40.7 23.148L40.5484 23.2983C40.4783 23.3698 40.3711 23.3863 40.2817 23.3414C40.1076 23.2534 39.9064 23.2465 39.7309 23.3226C39.7085 23.3327 39.6856 23.3418 39.6622 23.3515C39.4831 23.4207 39.3442 23.5682 39.2833 23.7556C39.2521 23.85 39.1641 23.9137 39.0638 23.9137H38.8512C38.7508 23.9137 38.6638 23.85 38.6322 23.7547C38.5708 23.5682 38.4319 23.4207 38.2519 23.3505C38.2294 23.3418 38.2069 23.3327 38.184 23.3226C38.1029 23.2878 38.0168 23.2699 37.9297 23.2699C37.8285 23.2699 37.7272 23.2942 37.6333 23.3414C37.5439 23.3863 37.4367 23.3698 37.3666 23.2983L37.2149 23.148C37.1448 23.0775 37.1279 22.9702 37.1732 22.8809C37.2612 22.7068 37.2676 22.5061 37.1916 22.3301C37.1815 22.3077 37.1723 22.2843 37.1632 22.2614C37.0935 22.0818 36.9455 21.9434 36.759 21.8825C36.6642 21.8513 36.6005 21.7633 36.6005 21.663V21.4504C36.6005 21.35 36.6642 21.262 36.759 21.2313C36.9464 21.1699 37.0935 21.032 37.1632 20.852C37.1723 20.8295 37.1815 20.8061 37.1916 20.7832C37.2676 20.6077 37.2612 20.4066 37.1732 20.2329C37.1279 20.1431 37.1448 20.0359 37.2149 19.9658L37.3666 19.815C37.4367 19.7449 37.5439 19.7271 37.6333 19.7724C37.8074 19.8604 38.0085 19.8668 38.184 19.7907C38.2069 19.7807 38.2294 19.7715 38.2528 19.7623C38.4319 19.6927 38.5708 19.5456 38.6322 19.3582C38.6629 19.2634 38.7508 19.2001 38.8512 19.2001H39.0638C39.1641 19.2001 39.2521 19.2634 39.2833 19.3582C39.3442 19.5456 39.4831 19.6927 39.6631 19.7633C39.6856 19.7715 39.7085 19.7807 39.7309 19.7907C39.906 19.8668 40.1076 19.8604 40.2817 19.7724C40.3711 19.7271 40.4783 19.7449 40.5484 19.815L40.7 19.9658C40.7706 20.0359 40.7871 20.1431 40.7417 20.2329C40.6542 20.4066 40.6474 20.6077 40.7234 20.7832C40.7335 20.8061 40.7427 20.8295 40.7518 20.852C40.8215 21.0311 40.9686 21.1699 41.1564 21.2313C41.2508 21.262 41.3145 21.35 41.3145 21.4504V21.663ZM39.1041 28.1177C39.0404 28.219 38.8746 28.219 38.8109 28.1177L38.0585 26.9136H39.8565L39.1041 28.1177ZM38.3146 26.4847H37.8862V23.7079C37.9297 23.6992 37.9733 23.6988 38.0136 23.7162C38.0411 23.7277 38.0695 23.7396 38.097 23.7506C38.1575 23.7739 38.2033 23.8243 38.2253 23.8894C38.2459 23.9531 38.2771 24.0127 38.3146 24.0653V26.4847ZM39.1719 26.4847H38.743V24.3329C38.7783 24.3389 38.8145 24.3421 38.8512 24.3421H39.0638C39.1005 24.3421 39.1366 24.3389 39.1719 24.3329V26.4847ZM40.0288 26.4847H39.6004V24.0653C39.6379 24.0127 39.6691 23.9531 39.6897 23.8894C39.7117 23.8243 39.7575 23.7739 39.8171 23.7506C39.8455 23.7396 39.8739 23.7277 39.9014 23.7162C39.9417 23.6988 39.9852 23.6992 40.0288 23.7079V26.4847ZM41.7429 21.663V21.4504C41.7429 21.1649 41.5606 20.9134 41.2893 20.8245C41.2247 20.8025 41.1747 20.7566 41.1505 20.6957C41.1395 20.6678 41.1285 20.6403 41.117 20.6128C41.0909 20.5541 41.0941 20.4863 41.1243 20.4254C41.2531 20.1706 41.2041 19.8645 41.002 19.6629L40.8517 19.5122C40.6496 19.3105 40.3436 19.2611 40.0893 19.3898C40.0279 19.421 39.96 19.4233 39.9014 19.3976C39.8739 19.3857 39.8455 19.3738 39.818 19.3632C39.7575 19.3399 39.7117 19.2895 39.6897 19.2239C39.6013 18.9536 39.3502 18.7712 39.0638 18.7712H38.8512C38.5648 18.7712 38.3137 18.9536 38.2253 19.2249C38.2033 19.2895 38.1575 19.3399 38.0979 19.3632C38.0695 19.3738 38.0411 19.3857 38.0136 19.3976C37.9549 19.4224 37.8871 19.4201 37.8257 19.3898C37.5714 19.2611 37.2653 19.3105 37.0633 19.5122L36.913 19.6629C36.7109 19.8645 36.6619 20.1706 36.7906 20.4254C36.8209 20.4863 36.8241 20.5541 36.798 20.6128C36.7865 20.6403 36.7755 20.6678 36.7641 20.6966C36.7402 20.7566 36.6903 20.8025 36.6248 20.8245C36.3535 20.9134 36.1721 21.1649 36.1721 21.4504V21.663C36.1721 21.9484 36.3544 22.2005 36.6257 22.2893C36.6903 22.3109 36.7402 22.3572 36.7645 22.4172C36.7755 22.4456 36.7865 22.4731 36.798 22.501C36.8241 22.5597 36.8209 22.627 36.7906 22.6884C36.6619 22.9427 36.7109 23.2493 36.913 23.4509L37.0633 23.6016C37.1723 23.7102 37.3121 23.773 37.4578 23.7891V26.7601L38.448 28.3454C38.5584 28.5219 38.749 28.6272 38.9575 28.6272C39.166 28.6272 39.3566 28.5219 39.467 28.3445L40.4572 26.7601V23.79C40.6029 23.773 40.7427 23.7112 40.8517 23.6016L41.002 23.4509C41.2041 23.2493 41.2531 22.9427 41.1243 22.6884C41.0941 22.627 41.0909 22.5597 41.117 22.501C41.1285 22.4731 41.1395 22.4456 41.1514 22.4172C41.1747 22.3572 41.2247 22.3109 41.2902 22.2893C41.5615 22.2005 41.7429 21.9484 41.7429 21.663Z" fill="#7930F4"/>
</g>
<mask id="mask3_4001_482" style="mask-type:luminance" maskUnits="userSpaceOnUse" x="37" y="15" width="4" height="4">
<path d="M37.4175 15.3428H40.4673V18.3541H37.4175V15.3428Z" fill="white"/>
</mask>
<g mask="url(#mask3_4001_482)">
<path d="M40.0289 17.9142H37.8863V15.7717H40.0289V17.9142ZM40.4573 15.3428H37.4579V18.3426H40.4573V15.3428Z" fill="#7930F4"/>
</g>
<path d="M39.6005 16.2H38.3148V16.6284H39.6005V16.2Z" fill="#7930F4"/>
<path d="M39.6005 17.0569H38.3148V17.4858H39.6005V17.0569Z" fill="#7930F4"/>
<mask id="mask4_4001_482" style="mask-type:luminance" maskUnits="userSpaceOnUse" x="32" y="19" width="4" height="5">
<path d="M32.3156 19.9963H35.4236V23.9846H32.3156V19.9963Z" fill="white"/>
</mask>
<g mask="url(#mask4_4001_482)">
<path d="M33.3868 23.2707V23.0568H34.2441V23.2707C34.2441 23.389 34.1479 23.4852 34.0296 23.4852H33.6012C33.483 23.4852 33.3868 23.389 33.3868 23.2707ZM33.6012 21.5566C33.6012 21.4388 33.6974 21.3426 33.8152 21.3426C33.9334 21.3426 34.0296 21.4388 34.0296 21.5566C34.0296 21.6748 33.9334 21.771 33.8152 21.771C33.6974 21.771 33.6012 21.6748 33.6012 21.5566ZM32.9584 22.1995C32.8204 22.0153 32.7439 21.7871 32.7439 21.5566C32.7439 20.966 33.2246 20.4853 33.8152 20.4853C34.4063 20.4853 34.8865 20.966 34.8865 21.5566C34.8865 21.7871 34.8104 22.0153 34.6725 22.1995L34.3508 22.6279H34.0296V22.16C34.278 22.0716 34.4581 21.8356 34.4581 21.5566C34.4581 21.2019 34.1703 20.9137 33.8152 20.9137C33.4605 20.9137 33.1728 21.2019 33.1728 21.5566C33.1728 21.8356 33.3524 22.0716 33.6012 22.16V22.6279H33.2796L32.9584 22.1995ZM34.0296 23.9136C34.3843 23.9136 34.6725 23.6258 34.6725 23.2707V22.9133L35.0148 22.4565C35.2091 22.1985 35.3154 21.8792 35.3154 21.5566C35.3154 20.73 34.6423 20.0569 33.8152 20.0569C32.9886 20.0569 32.3155 20.73 32.3155 21.5566C32.3155 21.8792 32.4218 22.1985 32.6152 22.4565L32.9584 22.9133V23.2707C32.9584 23.6258 33.2461 23.9136 33.6012 23.9136H34.0296Z" fill="#7930F4"/>
</g>
<mask id="mask5_4001_482" style="mask-type:luminance" maskUnits="userSpaceOnUse" x="42" y="20" width="4" height="4">
<path d="M42.1096 20.231H45.5998V23.75H42.1096V20.231Z" fill="white"/>
</mask>
<g mask="url(#mask5_4001_482)">
<path d="M44.1 23.2514V22.8422H43.6715V23.2514C43.1341 23.1602 42.7107 22.7368 42.6195 22.1994H43.0287V21.7709H42.6195C42.7107 21.2335 43.1341 20.8101 43.6715 20.7189V21.1281H44.1V20.7189C44.637 20.8101 45.0608 21.2335 45.152 21.7709H44.7428V22.1994H45.152C45.0608 22.7368 44.637 23.1602 44.1 23.2514ZM43.8855 20.2712C42.9407 20.2712 42.1714 21.0401 42.1714 21.9849C42.1714 22.9302 42.9407 23.6991 43.8855 23.6991C44.8303 23.6991 45.5997 22.9302 45.5997 21.9849C45.5997 21.0401 44.8303 20.2712 43.8855 20.2712Z" fill="#7930F4"/>
</g>
<path d="M43.7971 21.771H43.4571V22.1994H43.9744L44.68 21.4938L44.3767 21.1909L43.7971 21.771Z" fill="#7930F4"/>
<path d="M43.7224 19.097L43.9666 19.4993L44.5183 17.7654L44.1101 17.6348L43.837 18.4935C43.2161 17.6257 42.3817 16.9425 41.4016 16.5049L41.2275 16.8957C42.2672 17.3604 43.129 18.1219 43.7224 19.097Z" fill="#7930F4"/>
<path d="M33.4771 19.5412L33.8688 19.7154C34.3326 18.6757 35.0941 17.8138 36.0692 17.2204L36.4719 16.9758L34.7367 16.4241L34.6079 16.8328L35.4657 17.1054C34.5979 17.7268 33.9151 18.5611 33.4771 19.5412Z" fill="#7930F4"/>
<path d="M34.1927 24.8735L33.9485 24.4712L33.3968 26.205L33.8051 26.3356L34.0782 25.477C34.699 26.3448 35.5334 27.028 36.5135 27.4656L36.6876 27.0738C35.6484 26.6101 34.7861 25.8486 34.1927 24.8735Z" fill="#7930F4"/>
<path d="M44.4381 24.429L44.0473 24.2549C43.5827 25.2946 42.8211 26.1564 41.8461 26.7498L41.4433 26.9945L43.1785 27.5462L43.3073 27.1375L42.4495 26.8648C43.3174 26.2435 44.0001 25.4091 44.4381 24.429Z" fill="#7930F4"/>
</svg>
