<svg width="70" height="23" viewBox="0 0 70 23" fill="none" xmlns="http://www.w3.org/2000/svg">
<path d="M48.815 9V10.5H49.9779L50.2677 9.37389L48.815 9ZM1.5 9V7.5H0V9H1.5ZM1.5 14H0V15.5H1.5V14ZM48.815 14L50.2677 13.6261L49.9779 12.5H48.815V14ZM67 11.5C67 16.1944 63.1944 20 58.5 20V23C64.8513 23 70 17.8513 70 11.5H67ZM58.5 3C63.1944 3 67 6.80558 67 11.5H70C70 5.14873 64.8513 0 58.5 0V3ZM50.2677 9.37389C51.2114 5.70746 54.5414 3 58.5 3V0C53.1394 0 48.6389 3.66641 47.3624 8.62611L50.2677 9.37389ZM1.5 10.5H48.815V7.5H1.5V10.5ZM3 14V9H0V14H3ZM48.815 12.5H1.5V15.5H48.815V12.5ZM58.5 20C54.5414 20 51.2114 17.2925 50.2677 13.6261L47.3624 14.3739C48.6389 19.3336 53.1394 23 58.5 23V20ZM51.4849 11.5C51.4849 15.3744 54.6256 18.5151 58.5 18.5151V15.5151C56.2825 15.5151 54.4849 13.7175 54.4849 11.5H51.4849ZM58.5 4.48486C54.6256 4.48486 51.4849 7.62564 51.4849 11.5H54.4849C54.4849 9.2825 56.2825 7.48486 58.5 7.48486V4.48486ZM65.5151 11.5C65.5151 7.62564 62.3744 4.48486 58.5 4.48486V7.48486C60.7175 7.48486 62.5151 9.2825 62.5151 11.5H65.5151ZM58.5 18.5151C62.3744 18.5151 65.5151 15.3744 65.5151 11.5H62.5151C62.5151 13.7175 60.7175 15.5151 58.5 15.5151V18.5151Z" fill="url(#paint0_linear_7_5129)"/>
<defs>
<linearGradient id="paint0_linear_7_5129" x1="1.5" y1="11.5" x2="62.9415" y2="28.542" gradientUnits="userSpaceOnUse">
<stop stop-color="#7930F4"/>
<stop offset="0.541833" stop-color="#D80EB8"/>
<stop offset="0.923717" stop-color="#7930F4"/>
</linearGradient>
</defs>
</svg>
