<svg width="57" height="57" viewBox="0 0 57 57" fill="none" xmlns="http://www.w3.org/2000/svg">
<circle cx="28.5" cy="28.5" r="28.5" fill="#F1E9FF"/>
<path d="M22.3587 12.9688H19.3899C19.0641 12.9688 18.7962 13.2346 18.7962 13.5625C18.7962 13.8884 19.0641 14.1563 19.3899 14.1563H21.7649V21.2213C22.1508 20.9254 22.5366 20.6275 22.9524 20.3896V13.5625C22.9524 13.2346 22.6845 12.9688 22.3587 12.9688Z" fill="#81026D"/>
<path d="M42.5459 38.5C42.8718 38.5 43.1397 38.2321 43.1397 37.9063V36.4209C43.1397 36.095 42.8718 35.8271 42.5459 35.8271H36.3705C36.0147 36.243 35.6588 36.6588 35.243 37.0146H41.9522V37.9063C41.9522 38.2321 42.2201 38.5 42.5459 38.5Z" fill="#81026D"/>
<path d="M24.7334 41.4688V39.0638C24.3176 38.9159 23.9317 38.7379 23.5459 38.53V40.875H17.3125C16.9846 40.875 16.7188 41.1409 16.7188 41.4688C16.7188 41.7947 16.9846 42.0625 17.3125 42.0625H24.1396C24.4655 42.0625 24.7334 41.7947 24.7334 41.4688Z" fill="#81026D"/>
<path d="M20.9629 25.3775C21.1708 25.3775 21.3488 25.2895 21.4687 25.0816C21.6466 24.8137 21.5567 24.4279 21.2608 24.25C20.9929 24.072 20.6071 24.16 20.4291 24.4579C20.2512 24.7238 20.3392 25.1096 20.6371 25.2895C20.725 25.3475 20.845 25.3775 20.9629 25.3775Z" fill="#81026D"/>
<path d="M24.8514 37.2226C25.0013 36.9267 24.8814 36.5709 24.5855 36.4209C24.2876 36.273 23.9318 36.3909 23.7838 36.6588C23.6359 36.9567 23.7538 37.3126 24.0497 37.4605C24.1397 37.5205 24.2296 37.5205 24.3176 37.5205C24.5555 37.5205 24.7334 37.4005 24.8514 37.2226Z" fill="#81026D"/>
<path d="M22.0325 22.5567C21.7946 22.7946 21.7647 23.1504 22.0026 23.3883C22.1205 23.5083 22.2684 23.5662 22.4484 23.5662C22.5963 23.5662 22.7442 23.5083 22.8622 23.4183C23.1001 23.1804 23.1301 22.8245 22.8922 22.5866C22.6563 22.3487 22.2684 22.3208 22.0325 22.5567Z" fill="#81026D"/>
<path d="M20.1613 26.3571C19.8354 26.2691 19.5075 26.4471 19.4196 26.7729C19.3296 27.0988 19.5075 27.4267 19.8354 27.5146C19.8934 27.5146 19.9534 27.5446 19.9833 27.5446C20.2512 27.5446 20.4871 27.3667 20.5471 27.0988C20.6671 26.7729 20.4871 26.4471 20.1613 26.3571Z" fill="#81026D"/>
<path d="M30.9967 21.7552C31.0567 21.7852 31.1167 21.7852 31.2047 21.7852C31.4426 21.7852 31.6805 21.6372 31.7684 21.3993C31.8884 21.1034 31.7104 20.7456 31.4126 20.6276C31.1167 20.5097 30.7608 20.6876 30.6409 20.9835C30.5229 21.2814 30.7009 21.6372 30.9967 21.7552Z" fill="#81026D"/>
<path d="M24.3775 22.2308C24.4654 22.2308 24.5554 22.2008 24.6434 22.1708C24.9412 22.0228 25.0592 21.667 24.9112 21.3691C24.7633 21.0732 24.4075 20.9533 24.1096 21.1032C23.8137 21.2512 23.6938 21.607 23.8437 21.9049C23.9317 22.1128 24.1396 22.2308 24.3775 22.2308Z" fill="#81026D"/>
<path d="M31.3546 37.9642C31.6505 37.8462 31.8284 37.5204 31.7104 37.2225C31.5905 36.9266 31.2646 36.7487 30.9688 36.8667C30.6709 36.9846 30.493 37.3125 30.6109 37.6083C30.7009 37.8462 30.9388 37.9942 31.1747 37.9942C31.2346 37.9942 31.2946 37.9942 31.3546 37.9642Z" fill="#81026D"/>
<path d="M26.4248 38.292C26.4547 38.292 26.5147 38.292 26.5447 38.292C26.8126 38.292 27.0785 38.1141 27.1385 37.8162C27.1984 37.4904 26.9905 37.1925 26.6627 37.1045C26.3368 37.0446 26.0389 37.2525 25.951 37.5783C25.891 37.9362 26.0989 38.2321 26.4248 38.292Z" fill="#81026D"/>
<path d="M35.6587 32.5025C35.5387 32.8004 35.6587 33.1562 35.9546 33.2742C36.0445 33.3041 36.1045 33.3341 36.1925 33.3341C36.4304 33.3341 36.6383 33.2142 36.7262 32.9783C36.8462 32.6804 36.7262 32.3246 36.4304 32.2066C36.1325 32.0567 35.7766 32.2066 35.6587 32.5025Z" fill="#81026D"/>
<path d="M35.4208 35.1154C35.6287 34.8775 35.5987 34.4917 35.3308 34.2837C35.0949 34.0758 34.7091 34.1058 34.5012 34.3737C34.2933 34.6396 34.3233 34.9954 34.5891 35.2034C34.7091 35.2933 34.827 35.3533 34.975 35.3533C35.1249 35.3233 35.3028 35.2633 35.4208 35.1154Z" fill="#81026D"/>
<path d="M36.7563 27.5445C36.4305 27.6045 36.1926 27.9004 36.2526 28.2283C36.2825 28.5241 36.5484 28.732 36.8463 28.732C36.8763 28.732 36.9063 28.732 36.9343 28.732C37.2621 28.7021 37.5 28.3762 37.4401 28.0503C37.3801 27.7525 37.0842 27.5146 36.7563 27.5445Z" fill="#81026D"/>
<path d="M36.7563 31.0771C36.7863 31.0771 36.8163 31.0771 36.8463 31.0771C37.1422 31.0771 37.3801 30.8692 37.4401 30.5734C37.4701 30.2455 37.2621 29.9496 36.9343 29.8896C36.6084 29.8317 36.3125 30.0676 36.2526 30.3954C36.1926 30.7213 36.4305 31.0192 36.7563 31.0771Z" fill="#81026D"/>
<path d="M29.4535 37.8462C29.4235 37.5204 29.1576 37.2825 28.8297 37.2825C28.5039 37.3125 28.266 37.5783 28.266 37.9062C28.2959 38.2321 28.5338 38.47 28.8597 38.47C28.8897 38.47 28.8897 38.47 28.8897 38.47C29.2455 38.47 29.4834 38.1721 29.4535 37.8462Z" fill="#81026D"/>
<path d="M26.5747 21.4593C26.6047 21.4593 26.6626 21.4593 26.6926 21.4593C27.0185 21.3993 27.2264 21.0734 27.1684 20.7456C27.1085 20.4197 26.7826 20.2118 26.4547 20.2718C26.1289 20.3317 25.921 20.6576 25.9809 20.9835C26.0389 21.2514 26.3068 21.4593 26.5747 21.4593Z" fill="#81026D"/>
<path d="M33.2537 36.9268C33.3717 36.9268 33.4916 36.8968 33.6096 36.8068C33.8775 36.6289 33.9374 36.2431 33.7575 35.9772C33.5796 35.7093 33.1938 35.6493 32.9279 35.8273C32.66 36.0052 32.6 36.391 32.7779 36.6589C32.8679 36.8368 33.0758 36.9268 33.2537 36.9268Z" fill="#81026D"/>
<path d="M28.9196 21.3112C29.2155 21.3112 29.4834 21.0733 29.5134 20.7454C29.5434 20.4195 29.2755 20.1237 28.9796 20.1237C28.6518 20.0937 28.3559 20.3596 28.3559 20.6574C28.2959 20.9833 28.5338 21.2812 28.8597 21.3112C28.8897 21.3112 28.8897 21.3112 28.9196 21.3112Z" fill="#81026D"/>
<path d="M42.2501 20.0938V17.7188C42.2501 17.3909 41.9822 17.125 41.6563 17.125C41.3285 17.125 41.0626 17.3909 41.0626 17.7188V19.5H38.9535C39.2513 19.8559 39.5172 20.2417 39.6672 20.6875H41.6563C41.9822 20.6875 42.2501 20.4196 42.2501 20.0938Z" fill="#81026D"/>
<path d="M40.1712 25.4075C40.557 25.0217 40.7649 24.4879 40.7649 23.9521C40.7649 22.7946 39.8453 21.875 38.6878 21.875C38.6878 20.5676 37.6182 19.5 36.3128 19.5C35.0053 19.5 33.9378 20.5676 33.9378 21.875C33.372 21.875 32.8682 22.0829 32.4524 22.4987C32.0666 22.8846 31.8587 23.4184 31.8587 23.9521C31.8587 25.1096 32.7783 26.0313 33.9378 26.0313H38.6878C39.2516 26.0313 39.7553 25.8233 40.1712 25.4075ZM33.0462 23.9521C33.0462 23.7142 33.1361 23.4783 33.3141 23.3284C33.492 23.1505 33.6999 23.0625 33.9378 23.0625H34.6195C34.8274 23.0625 35.0053 22.9725 35.0953 22.7946C35.2133 22.6467 35.2432 22.4388 35.1533 22.2608C35.1533 22.1409 35.1253 22.0229 35.1253 21.875C35.1253 21.2213 35.6591 20.6875 36.3128 20.6875C36.9645 20.6875 37.5003 21.2213 37.5003 21.875C37.5003 22.0229 37.4703 22.1409 37.4403 22.2608C37.3803 22.4388 37.4103 22.6467 37.5003 22.7946C37.6182 22.9426 37.7962 23.0625 37.9741 23.0625H38.6578C39.1616 23.0625 39.5474 23.4483 39.5474 23.9521C39.5474 24.19 39.4595 24.4279 39.2815 24.5759C39.1016 24.7538 38.8937 24.8438 38.6578 24.8438H33.9378C33.432 24.8438 33.0462 24.4579 33.0462 23.9521Z" fill="#81026D"/>
<path d="M34.8269 29.2959C34.8269 28.5842 34.709 27.8705 34.5011 27.2188H33.9373C33.6694 27.2188 33.4315 27.1888 33.1636 27.1288C33.3715 27.6346 33.5215 28.1384 33.6094 28.7022H30.9686C30.9386 27.9305 30.8486 27.1588 30.7307 26.4471C30.9686 26.3272 31.2045 26.2092 31.4424 26.0613C31.1745 25.7634 30.9965 25.4075 30.8486 25.0217C30.7307 25.1097 30.5807 25.1696 30.4328 25.2596C30.3148 24.9018 30.1949 24.5459 30.0469 24.25C30.2848 24.338 30.4928 24.4279 30.7007 24.5459C30.6707 24.368 30.6407 24.1601 30.6407 23.9521C30.6407 23.7142 30.6707 23.4783 30.7307 23.2404C29.959 22.9426 29.1573 22.7646 28.2657 22.7646C24.9411 22.7646 22.1802 25.2896 21.7944 28.5242C21.9124 28.6142 22.0023 28.7022 22.0903 28.7921C22.1802 28.8521 22.2402 28.9401 22.3282 29.03C22.4181 29.118 22.4761 29.2079 22.5361 29.2959L22.5661 29.3259C22.6261 29.4159 22.684 29.4738 22.714 29.5638C22.714 29.5938 22.744 29.5938 22.744 29.6238C22.804 29.7117 22.862 29.8017 22.8919 29.9196C22.9219 30.0096 22.9519 30.0676 22.9819 30.1575C22.9819 30.0676 22.9519 30.0096 22.9519 29.9196H25.6248C25.6528 30.6333 25.7128 31.3151 25.8307 31.9688C25.5948 32.0867 25.3569 32.2067 25.119 32.3546C25.267 32.7105 25.3269 33.0963 25.3269 33.4821C25.3269 33.5421 25.3269 33.6021 25.3269 33.6601C25.5648 33.4522 25.8307 33.3042 26.0986 33.1563C26.2186 33.6021 26.3665 34.0159 26.5444 34.3738C26.0986 34.2238 25.7128 34.0159 25.3269 33.78C25.2969 34.1958 25.179 34.6097 25.0011 34.9675C25.9507 35.5013 27.0782 35.8272 28.2957 35.8272C31.8882 35.8272 34.8269 32.8884 34.8269 29.2959ZM32.244 32.8884C31.7982 32.5026 31.2944 32.1767 30.7886 31.9388C30.9086 31.2851 30.9686 30.6034 30.9965 29.8897H33.6394C33.4915 31.0472 32.9857 32.0867 32.244 32.8884ZM31.3544 33.6901C30.9686 33.9579 30.5227 34.1659 30.0769 34.3438C30.2549 33.9879 30.4028 33.5721 30.5227 33.1263C30.7886 33.2742 31.0865 33.4522 31.3544 33.6901ZM29.7811 28.7022H26.8123C26.8403 28.0204 26.9003 27.3667 26.9902 26.8329C27.4061 26.9209 27.8499 26.9809 28.2957 26.9809C28.7415 26.9809 29.1573 26.9209 29.6011 26.8329C29.6911 27.3967 29.7511 28.0204 29.7811 28.7022ZM29.3352 25.6754C28.6515 25.8234 27.9398 25.8234 27.2561 25.6754C27.584 24.5759 27.9998 23.9521 28.2957 23.9521C28.5936 23.9521 29.0074 24.5759 29.3352 25.6754ZM26.1286 25.2596C25.8607 25.1397 25.6248 24.9617 25.3869 24.8138C25.7428 24.5759 26.0986 24.398 26.4844 24.28C26.3665 24.5759 26.2465 24.9018 26.1286 25.2596ZM24.4653 25.5855C24.8811 25.9413 25.3569 26.2392 25.8607 26.4471C25.7428 27.1588 25.6528 27.9305 25.6248 28.7022H22.9819C23.1298 27.4847 23.6636 26.4171 24.4653 25.5855ZM26.8123 29.8897H29.7811C29.7511 30.4834 29.6911 31.0472 29.6311 31.553C28.7415 31.345 27.8199 31.345 26.9602 31.553C26.8703 31.0472 26.8403 30.4834 26.8123 29.8897ZM27.1981 32.7105C27.9098 32.5325 28.6815 32.5325 29.3932 32.7105C29.0674 33.928 28.5936 34.6397 28.2957 34.6397C27.9998 34.6397 27.524 33.9579 27.1981 32.7105Z" fill="#81026D"/>
<path d="M17.3128 35.5313H22.0628C22.6266 35.5313 23.1303 35.3233 23.5462 34.9075C23.932 34.5217 24.1399 33.9879 24.1399 33.4521C24.1399 32.2946 23.2203 31.375 22.0628 31.375C22.0628 30.0676 20.9932 29 19.6878 29C18.3803 29 17.3128 30.0676 17.3128 31.375C16.747 31.375 16.2432 31.5829 15.8274 31.9987C15.4416 32.3846 15.2337 32.9184 15.2337 33.4521C15.2337 34.6096 16.1533 35.5313 17.3128 35.5313ZM16.6891 32.8284C16.867 32.6505 17.0749 32.5625 17.3128 32.5625H17.9945C18.2024 32.5625 18.3803 32.4725 18.4703 32.2946C18.5883 32.1467 18.6182 31.9388 18.5283 31.7608C18.5283 31.6409 18.5003 31.5229 18.5003 31.375C18.5003 30.7213 19.0341 30.1875 19.6878 30.1875C20.3395 30.1875 20.8753 30.7213 20.8753 31.375C20.8753 31.5229 20.8453 31.6409 20.8153 31.7608C20.7553 31.9388 20.7853 32.1467 20.8753 32.2946C20.9932 32.4426 21.1712 32.5625 21.3491 32.5625H22.0628C22.5666 32.5625 22.9524 32.9483 22.9524 33.4521C22.9524 33.69 22.8625 33.9279 22.6845 34.0759C22.5366 34.2538 22.2987 34.3438 22.0628 34.3438H17.3128C16.807 34.3438 16.4212 33.9579 16.4212 33.4521C16.4212 33.2142 16.5111 32.9783 16.6891 32.8284Z" fill="#81026D"/>
<mask id="mask0_4001_25" style="mask-type:luminance" maskUnits="userSpaceOnUse" x="38" y="26" width="9" height="9">
<path d="M38.4775 26.4351H46.9999V34.1118H38.4775V26.4351Z" fill="white"/>
</mask>
<g mask="url(#mask0_4001_25)">
<path d="M44.6248 26.9209C43.2294 26.9209 42.2498 28.0504 42.2498 29.6817C42.2498 29.7417 42.2498 29.8317 42.2498 29.8897H38.6573C38.6273 30.3055 38.5973 30.6913 38.5073 31.0772H42.5456H42.5756C43.0794 32.3546 44.001 33.6301 44.149 33.808C44.2669 33.9579 44.4448 34.0459 44.6248 34.0459C44.8027 34.0459 44.9806 33.9579 45.0986 33.808C45.3065 33.5421 46.9998 31.2271 46.9998 29.6817C46.9998 28.0504 46.0182 26.9209 44.6248 26.9209ZM44.6248 32.4146C44.059 31.523 43.4373 30.3655 43.4373 29.6817C43.4373 28.7321 43.9111 28.1084 44.6248 28.1084C45.3365 28.1084 45.8123 28.7321 45.8123 29.6817C45.8123 30.3655 45.1885 31.523 44.6248 32.4146Z" fill="#81026D"/>
</g>
<path d="M45.2188 29.2959C45.2188 29.3759 45.2028 29.4518 45.1728 29.5238C45.1428 29.5958 45.0988 29.6597 45.0448 29.7157C44.9888 29.7717 44.9249 29.8157 44.8509 29.8457C44.7789 29.8757 44.703 29.8896 44.625 29.8896C44.545 29.8896 44.4691 29.8757 44.3971 29.8457C44.3231 29.8157 44.2592 29.7717 44.2052 29.7157C44.1492 29.6597 44.1052 29.5958 44.0752 29.5238C44.0452 29.4518 44.0312 29.3759 44.0312 29.2959C44.0312 29.2179 44.0452 29.142 44.0752 29.07C44.1052 28.996 44.1492 28.9321 44.2052 28.8761C44.2592 28.8201 44.3231 28.7781 44.3971 28.7481C44.4691 28.7181 44.545 28.7021 44.625 28.7021C44.703 28.7021 44.7789 28.7181 44.8509 28.7481C44.9249 28.7781 44.9888 28.8201 45.0448 28.8761C45.0988 28.9321 45.1428 28.996 45.1728 29.07C45.2028 29.142 45.2188 29.2179 45.2188 29.2959Z" fill="#81026D"/>
<mask id="mask1_4001_25" style="mask-type:luminance" maskUnits="userSpaceOnUse" x="9" y="35" width="8" height="13">
<path d="M9 35.6472H16.4709V48H9V35.6472Z" fill="white"/>
</mask>
<g mask="url(#mask1_4001_25)">
<path d="M14.9375 36.125H10.1875C9.53378 36.125 9.00001 36.6588 9.00001 37.3125V46.8125C9.00001 47.4642 9.53378 48 10.1875 48H14.9375C15.5892 48 16.125 47.4642 16.125 46.8125V37.3125C16.125 36.6588 15.5892 36.125 14.9375 36.125ZM10.1875 46.8125V37.3125H14.9375V46.8125H10.1875Z" fill="#81026D"/>
</g>
<path d="M13.1563 45.0312H11.9688C11.6409 45.0312 11.375 45.2971 11.375 45.625C11.375 45.9509 11.6409 46.2188 11.9688 46.2188H13.1563C13.4821 46.2188 13.75 45.9509 13.75 45.625C13.75 45.2971 13.4821 45.0312 13.1563 45.0312Z" fill="#81026D"/>
<path d="M12.8587 38.2021C12.8587 38.2841 12.8307 38.3541 12.7727 38.412C12.7147 38.47 12.6448 38.5 12.5628 38.5C12.4808 38.5 12.4109 38.47 12.3529 38.412C12.2949 38.3541 12.2649 38.2841 12.2649 38.2021C12.2649 38.1202 12.2949 38.0502 12.3529 37.9922C12.4109 37.9342 12.4808 37.9062 12.5628 37.9062C12.6448 37.9062 12.7147 37.9342 12.7727 37.9922C12.8307 38.0502 12.8587 38.1202 12.8587 38.2021Z" fill="#81026D"/>
<path d="M42.25 15.9375C42.25 16.0155 42.234 16.0914 42.204 16.1634C42.174 16.2374 42.1301 16.3013 42.0761 16.3573C42.0201 16.4133 41.9561 16.4553 41.8822 16.4853C41.8102 16.5153 41.7342 16.5313 41.6563 16.5313C41.5763 16.5313 41.5003 16.5153 41.4283 16.4853C41.3544 16.4553 41.2904 16.4133 41.2364 16.3573C41.1805 16.3013 41.1365 16.2374 41.1065 16.1634C41.0765 16.0914 41.0625 16.0155 41.0625 15.9375C41.0625 15.8575 41.0765 15.7836 41.1065 15.7096C41.1365 15.6376 41.1805 15.5737 41.2364 15.5177C41.2904 15.4617 41.3544 15.4177 41.4283 15.3877C41.5003 15.3577 41.5763 15.3438 41.6563 15.3438C41.7342 15.3438 41.8102 15.3577 41.8822 15.3877C41.9561 15.4177 42.0201 15.4617 42.0761 15.5177C42.1301 15.5737 42.174 15.6376 42.204 15.7096C42.234 15.7836 42.25 15.8575 42.25 15.9375Z" fill="#81026D"/>
<path d="M42.9016 14.8681C43.1395 14.6302 43.1395 14.2743 42.9016 14.0364C42.2198 13.3547 41.0903 13.3547 40.3786 14.0364C40.1407 14.2743 40.1407 14.6302 40.3786 14.8681C40.6165 15.106 40.9724 15.106 41.2103 14.8681C41.4482 14.6302 41.834 14.6302 42.0419 14.8681C42.1599 14.988 42.3078 15.046 42.4557 15.046C42.6057 15.046 42.8136 14.988 42.9016 14.8681Z" fill="#81026D"/>
<path d="M44.0312 13.7104C44.1792 13.7104 44.3571 13.6504 44.4751 13.5025C44.683 13.2646 44.683 12.8787 44.4451 12.6708C42.9017 11.2754 40.4387 11.2754 38.8934 12.6708C38.6575 12.8787 38.6275 13.2646 38.8654 13.5025C39.0733 13.7404 39.4592 13.7704 39.6951 13.5325C40.7946 12.5529 42.5459 12.5529 43.6434 13.5325C43.7334 13.6504 43.8813 13.7104 44.0312 13.7104Z" fill="#81026D"/>
<mask id="mask2_4001_25" style="mask-type:luminance" maskUnits="userSpaceOnUse" x="9" y="10" width="10" height="7">
<path d="M9.81784 10H18.0064V16.1994H9.81784V10Z" fill="white"/>
</mask>
<g mask="url(#mask2_4001_25)">
<path d="M17.3125 15.9375C17.6383 15.9375 17.9062 15.6696 17.9062 15.3438V10.5938C17.9062 10.2659 17.6383 10 17.3125 10H10.7812C10.4534 10 10.1875 10.2659 10.1875 10.5938V15.3438C10.1875 15.6696 10.4534 15.9375 10.7812 15.9375H17.3125ZM11.375 11.1875H16.7187V14.75H11.375V11.1875Z" fill="#81026D"/>
</g>
<mask id="mask3_4001_25" style="mask-type:luminance" maskUnits="userSpaceOnUse" x="9" y="16" width="11" height="2">
<path d="M9 16.1995H19.5416V17.7348H9V16.1995Z" fill="white"/>
</mask>
<g mask="url(#mask3_4001_25)">
<path d="M9.00001 17.125C9.00001 17.4509 9.2659 17.7188 9.59376 17.7188H18.5C18.8259 17.7188 19.0938 17.4509 19.0938 17.125C19.0938 16.7971 18.8259 16.5312 18.5 16.5312H9.59376C9.2659 16.5312 9.00001 16.7971 9.00001 17.125Z" fill="#81026D"/>
</g>
<mask id="mask4_4001_25" style="mask-type:luminance" maskUnits="userSpaceOnUse" x="39" y="38" width="7" height="10">
<path d="M39.5013 38.718H45.6427V48.0001H39.5013V38.718Z" fill="white"/>
</mask>
<g mask="url(#mask4_4001_25)">
<path d="M45.2188 47.4063V45.625C45.2188 45.2971 44.9509 45.0313 44.6251 45.0313H43.1397V43.16C44.0013 42.8942 44.6251 42.1205 44.6251 41.1709C44.6251 40.0134 43.7035 39.0938 42.5459 39.0938C41.3884 39.0938 40.4688 40.0134 40.4688 41.1709C40.4688 42.1205 41.0906 42.8942 41.9522 43.16V45.0313H40.4688C40.141 45.0313 39.8751 45.2971 39.8751 45.625V47.4063C39.8751 47.7321 40.141 48 40.4688 48H44.6251C44.9509 48 45.2188 47.7321 45.2188 47.4063ZM41.6563 41.1709C41.6563 40.6671 42.0422 40.2813 42.5459 40.2813C43.0497 40.2813 43.4376 40.6671 43.4376 41.1709C43.4376 41.6767 43.0497 42.0625 42.5459 42.0625C42.0422 42.0625 41.6563 41.6767 41.6563 41.1709ZM44.0313 46.8125H41.0626V46.2188H44.0313V46.8125Z" fill="#81026D"/>
</g>
<mask id="mask5_4001_25" style="mask-type:luminance" maskUnits="userSpaceOnUse" x="45" y="38" width="3" height="5">
<path d="M45.131 38.718H47.0002V42.8123H45.131V38.718Z" fill="white"/>
</mask>
<g mask="url(#mask5_4001_25)">
<path d="M46.1986 39.2417C45.9607 39.0338 45.5749 39.0638 45.367 39.3317C45.1591 39.5976 45.189 39.9534 45.4549 40.1614C45.6928 40.3693 45.8408 40.6372 45.8408 40.905C45.8408 41.1709 45.6928 41.4388 45.4549 41.6467C45.189 41.8546 45.1591 42.2405 45.367 42.4784C45.4849 42.6263 45.6628 42.6863 45.8128 42.6863C45.9607 42.6863 46.0787 42.6263 46.1986 42.5364C46.7324 42.0925 47.0003 41.5268 47.0003 40.905C47.0003 40.2813 46.7024 39.6576 46.1986 39.2417Z" fill="#81026D"/>
</g>
<path d="M39.5171 42.7143C39.667 42.7143 39.815 42.6563 39.9329 42.5364C40.1708 42.3005 40.1708 41.9426 39.9329 41.7067C39.4591 41.2309 39.4591 40.4893 39.9329 40.0135C40.1708 39.7756 40.1708 39.4197 39.9329 39.1818C39.695 38.9459 39.3392 38.9459 39.1013 39.1818C38.1817 40.1034 38.1817 41.6168 39.1013 42.5364C39.1912 42.6563 39.3392 42.7143 39.5171 42.7143Z" fill="#81026D"/>
</svg>
