<svg width="1080" height="1080" viewBox="0 0 1080 1080" fill="none" xmlns="http://www.w3.org/2000/svg">
<g clip-path="url(#clip0_2026_2)">
<rect width="1080" height="1080" fill="white"/>
<path d="M410.102 403.92V485.297L462.417 437.738V357.946H273.765V494.811H325.552V403.92H410.102Z" fill="#7930F4"/>
<path d="M617.249 438.266L571.275 484.24H538.512V666.552H603.51V712.526H532.171L486.197 666.552V484.24H421.199L467.173 438.266H486.197V399.69L538.512 347.375V438.266H617.249Z" fill="#7930F4"/>
<path d="M806.508 712.526H754.193V484.24H669.115V712.526H616.799V341.562L669.115 289.775V477.899L707.69 438.266H760.534L806.508 484.24V712.526Z" fill="#7930F4"/>
<path d="M411.158 490.582H464.002V712.526H411.158V490.582Z" fill="#7930F4"/>
<path d="M216.209 711.588L179.342 702.175L173.219 691.904L213.823 702.091L230.64 692.066L219.233 672.934L212.185 677.136L207.382 669.08L221.479 660.676L242.491 695.919L216.209 711.588ZM224.438 768.226L214.147 755.44C212.726 753.674 212.11 751.662 212.298 749.404C212.597 747.157 213.629 745.323 215.394 743.902L235.486 727.73L228.135 718.598L238.025 719.667L240.966 723.32L247.359 718.174L258.897 719.422L246.111 729.713L256.402 742.498L250.923 746.909L240.632 734.123L219.627 751.03L229.917 763.815L224.438 768.226ZM268.481 811.902L262.506 806.276L285.811 781.523L267.887 764.647L244.582 789.4L238.607 783.775L279.592 740.243L291.192 739.894L268.69 763.793L276.976 763.544L290.633 776.402C292.283 777.956 293.115 779.866 293.128 782.132C293.252 784.395 292.536 786.352 290.983 788.002L268.481 811.902ZM368.771 821.973L354.147 813.306L329.045 855.665L320.977 850.884L346.079 808.525L331.455 799.859L335.639 792.799L372.955 814.913L368.771 821.973ZM396.575 887.889L366.32 875.156C364.231 874.277 362.733 872.799 361.827 870.721C361.023 868.602 361.06 866.498 361.939 864.409L371.489 841.717C372.368 839.628 373.831 838.167 375.878 837.332C378.028 836.456 380.147 836.458 382.236 837.337L404.927 846.886C407.016 847.765 408.463 849.265 409.267 851.384C410.174 853.461 410.187 855.544 409.308 857.633L406.125 865.197L395.378 869.578L373.767 860.483L382.979 856.728L398.106 863.095L402.199 853.37L379.507 843.82L369.048 868.673L399.304 881.405L396.575 887.889ZM460.905 864.426L452.18 869.375L433.039 864.26L426.077 890.309L449.862 896.666L448.045 903.461L424.261 897.105C422.071 896.52 420.386 895.26 419.204 893.326C418.117 891.337 417.867 889.247 418.452 887.058L424.808 863.273C425.393 861.084 426.643 859.436 428.557 858.329C430.566 857.167 432.665 856.879 434.855 857.464L460.905 864.426ZM508.285 912.07L500.135 911.111L504.107 877.346L479.657 874.47L475.685 908.235L467.535 907.276L474.52 847.896L483.629 840.705L479.794 873.306L486.3 868.169L504.929 870.36C507.18 870.625 508.986 871.664 510.347 873.476C511.794 875.221 512.385 877.218 512.12 879.469L508.285 912.07ZM573.706 911.892L565.507 912.24L564.066 878.273L539.469 879.316L540.91 913.283L532.711 913.631L530.972 872.636L539.171 872.288L539.42 878.145L545.028 872.04L563.768 871.245C566.033 871.149 567.981 871.888 569.612 873.461C571.318 874.953 572.219 876.832 572.315 879.096L573.706 911.892ZM636.676 893.344C637.128 895.565 636.713 897.643 635.432 899.579C634.211 901.422 632.491 902.569 630.27 903.021L606.144 907.928C603.923 908.379 601.853 908.003 599.933 906.798C598.074 905.501 596.919 903.742 596.467 901.521L591.561 877.396C591.109 875.175 591.493 873.143 592.714 871.3C593.995 869.364 595.746 868.171 597.967 867.719L622.092 862.812C624.313 862.361 626.353 862.783 628.212 864.08C630.132 865.285 631.318 866.998 631.769 869.219L636.676 893.344ZM628.868 896.128L623.494 869.705L599.369 874.612L604.743 901.035L628.868 896.128ZM671.041 892.572L663.254 895.163L644.382 838.43L649.579 828.053L671.041 892.572ZM728.76 858.523C729.73 860.571 729.824 862.689 729.043 864.874C728.299 866.956 726.903 868.482 724.854 869.451L702.602 879.986C700.554 880.955 698.453 881.085 696.301 880.374C694.186 879.56 692.644 878.128 691.674 876.08L681.14 853.828C680.17 851.78 680.057 849.714 680.801 847.633C681.582 845.447 682.997 843.869 685.046 842.9L707.297 832.365C709.346 831.396 711.428 831.318 713.543 832.133C715.695 832.843 717.256 834.223 718.226 836.271L728.76 858.523ZM721.844 863.094L710.307 838.723L688.055 849.257L699.593 873.628L721.844 863.094ZM768.238 794.565L766.43 804.347L742.285 820.959L757.568 843.173L777.851 829.219L764.561 809.902L771.321 805.251L797.901 843.884C799.186 845.751 799.595 847.794 799.129 850.012C798.772 852.25 797.659 854.011 795.792 855.296L767.783 874.566L769.591 864.784L791.805 849.501L778.449 830.088L776.043 839.001L761.555 848.968C759.688 850.253 757.635 850.716 755.397 850.359C753.179 849.893 751.428 848.726 750.143 846.859L736.188 826.576C734.904 824.709 734.462 822.688 734.864 820.515C735.286 818.232 736.43 816.449 738.298 815.164L768.238 794.565ZM849.438 798.57C851.006 800.207 851.738 802.157 851.634 804.422C851.641 806.688 850.826 808.605 849.189 810.173L824.638 833.691L824.852 823.746L844.323 805.094L828.104 788.162L827.926 796.449L814.38 809.425C812.744 810.993 810.792 811.78 808.526 811.786C806.261 811.682 804.345 810.812 802.778 809.175L780.071 785.471L785.997 779.794L809.515 804.345L827.293 787.315L803.775 762.764L809.701 757.087L849.438 798.57ZM859.161 693.175L861.081 703.02L850.149 719.543L857.97 724.719L867.027 711.031C868.278 709.141 870.019 707.997 872.25 707.599C874.459 707.092 876.509 707.465 878.399 708.715L885.243 713.243C887.133 714.494 888.31 716.257 888.773 718.531C889.214 720.697 888.809 722.725 887.559 724.616L873.974 745.147L868.108 741.266L881.693 720.734L872.893 714.912L863.837 728.6C862.586 730.49 860.856 731.689 858.647 732.195C856.415 732.593 854.355 732.166 852.464 730.916L846.598 727.034C844.708 725.784 843.542 724.075 843.101 721.909C842.638 719.635 843.032 717.552 844.283 715.662L859.161 693.175ZM913.789 657.604C915.838 658.574 917.252 660.152 918.033 662.338C918.776 664.42 918.663 666.485 917.693 668.533L907.155 690.783C906.185 692.832 904.642 694.263 902.527 695.077C900.375 695.787 898.274 695.657 896.226 694.687L873.976 684.149C871.928 683.179 870.532 681.653 869.788 679.571C869.007 677.385 869.102 675.268 870.072 673.22L880.61 650.97C881.58 648.922 883.142 647.542 885.294 646.832C887.409 646.018 889.491 646.096 891.539 647.066L913.789 657.604ZM911.336 665.523L886.967 653.981L876.429 676.231L900.798 687.772L911.336 665.523ZM933.771 629.637L931.177 637.423L874.453 618.527L869.26 608.148L933.771 629.637ZM949.087 564.649L947.463 572.693L941.717 571.533L946.303 578.438L942.59 596.825C942.142 599.046 940.989 600.807 939.132 602.106C937.214 603.314 935.144 603.693 932.922 603.245L900.746 596.748L902.37 588.704L935.695 595.433L940.568 571.3L907.242 564.572L908.867 556.528L949.087 564.649ZM954.526 513.502L953.5 529.883C953.358 532.145 952.456 534.046 950.793 535.586C949.057 537.044 947.058 537.701 944.796 537.56L919.055 535.946L918.322 547.647L911.742 540.186L912.035 535.506L903.845 534.993L896.168 526.289L912.548 527.316L913.575 510.935L920.595 511.375L919.569 527.756L946.48 529.443L947.506 513.062L954.526 513.502ZM906.671 487.021L906.946 495.223L897.572 495.536L897.298 487.334L906.671 487.021ZM954.71 485.415L954.985 493.617L919.834 494.792L911.358 486.864L954.71 485.415ZM938.581 421.601C940.821 421.257 942.877 421.772 944.748 423.145C946.531 424.453 947.594 426.227 947.937 428.468L951.673 452.802C952.016 455.042 951.54 457.092 950.244 458.951C948.859 460.745 947.046 461.814 944.806 462.158L920.472 465.893C918.232 466.237 916.221 465.755 914.438 464.447C912.567 463.074 911.459 461.267 911.116 459.027L907.381 434.693C907.037 432.452 907.557 430.435 908.942 428.641C910.239 426.782 912.007 425.68 914.247 425.336L938.581 421.601ZM940.985 429.535L914.333 433.626L918.068 457.96L944.72 453.869L940.985 429.535ZM929.219 357.273L931.717 365.09L899.333 375.44L906.828 398.891L939.212 388.541L941.71 396.358L902.626 408.849L900.128 401.032L905.711 399.248L898.343 395.449L892.633 377.582C891.943 375.423 892.142 373.349 893.229 371.36C894.218 369.321 895.793 367.957 897.952 367.267L929.219 357.273ZM869.132 322.206L878.586 325.56L887.253 343.376L895.687 339.273L888.507 324.514C887.515 322.476 887.416 320.395 888.208 318.271C888.895 316.112 890.258 314.536 892.296 313.545L899.676 309.955C901.714 308.963 903.83 308.846 906.024 309.604C908.113 310.326 909.654 311.706 910.645 313.744L921.415 335.883L915.09 338.96L904.32 316.821L894.832 321.437L902.012 336.196C903.003 338.234 903.155 340.333 902.468 342.493C901.675 344.616 900.26 346.174 898.222 347.165L891.897 350.242C889.859 351.234 887.795 351.369 885.706 350.647C883.512 349.889 881.919 348.491 880.927 346.453L869.132 322.206ZM873.529 252.212L878.408 258.81L830.333 294.357L818.855 292.637L873.529 252.212ZM839.447 211.962L850.461 224.13C851.982 225.81 852.713 227.784 852.656 230.049C852.488 232.31 851.564 234.2 849.883 235.721L830.762 253.029L838.629 261.721L828.693 261.226L825.547 257.749L819.462 263.256L807.871 262.679L820.04 251.665L809.026 239.497L814.241 234.776L825.255 246.945L845.246 228.85L834.232 216.682L839.447 211.962ZM794.137 171.321L800.379 176.648L796.574 181.106L804.838 180.453L819.106 192.629C820.83 194.1 821.809 195.963 822.043 198.217C822.167 200.48 821.493 202.474 820.022 204.198L804.04 222.925C802.569 224.649 800.732 225.599 798.528 225.773C796.214 225.956 794.195 225.312 792.471 223.841L773.744 207.859L761.568 222.128L749.998 223.043L794.137 171.321ZM795.813 181.998L774.505 206.968L782.769 206.314L797.037 218.49L814.54 197.979L795.813 181.998Z" fill="#7930F4"/>
</g>
<defs>
<clipPath id="clip0_2026_2">
<rect width="1080" height="1080" fill="white"/>
</clipPath>
</defs>
</svg>
